# MagicaVoxel @ ephtracy

# material
mtllib 8x8x8.mtl
usemtl palette

# normals
vn -1 0 0
vn 1 0 0
vn 0 0 1
vn 0 0 -1
vn 0 -1 0
vn 0 1 0

# texcoords
vt 0.537109 0.5
vt 0.990234 0.5
vt 0.994141 0.5

# verts
v -4 9 -4
v -4 9 -5
v -4 10 -4
v -4 10 -5
v -2 5 -20
v -2 5 -24
v -2 5 -25
v -2 6 -19
v -2 6 -20
v -2 7 -5
v -2 7 -8
v -2 7 -15
v -2 7 -19
v -2 8 4
v -2 8 3
v -2 8 -3
v -2 8 -5
v -2 8 -8
v -2 8 -13
v -2 8 -15
v -2 8 -17
v -2 8 -19
v -2 8 -20
v -2 8 -23
v -2 9 -4
v -2 9 -5
v -2 9 -11
v -2 9 -15
v -2 9 -17
v -2 9 -19
v -2 9 -20
v -2 9 -23
v -2 9 -24
v -2 9 -25
v -2 10 4
v -2 10 3
v -2 10 -3
v -2 10 -4
v -2 10 -5
v -2 10 -11
v -2 10 -13
v -2 10 -15
v -2 11 -3
v -2 11 -13
v -1 0 -3
v -1 0 -5
v -1 1 -2
v -1 1 -3
v -1 1 -5
v -1 1 -6
v -1 2 -2
v -1 2 -3
v -1 2 -4
v -1 2 -6
v -1 2 -7
v -1 2 -10
v -1 2 -11
v -1 3 -3
v -1 3 -4
v -1 3 -5
v -1 3 -6
v -1 3 -11
v -1 3 -12
v -1 4 -5
v -1 4 -6
v -1 4 -7
v -1 4 -8
v -1 4 -19
v -1 4 -24
v -1 4 -25
v -1 5 -4
v -1 5 -5
v -1 5 -8
v -1 5 -10
v -1 5 -17
v -1 5 -19
v -1 5 -20
v -1 5 -24
v -1 5 -25
v -1 6 -8
v -1 6 -9
v -1 6 -10
v -1 6 -12
v -1 6 -14
v -1 6 -17
v -1 6 -19
v -1 6 -20
v -1 7 14
v -1 7 13
v -1 7 8
v -1 7 6
v -1 7 4
v -1 7 3
v -1 7 -3
v -1 7 -5
v -1 7 -6
v -1 7 -7
v -1 7 -8
v -1 7 -9
v -1 7 -12
v -1 7 -13
v -1 7 -14
v -1 7 -15
v -1 7 -19
v -1 8 16
v -1 8 14
v -1 8 13
v -1 8 8
v -1 8 6
v -1 8 4
v -1 8 3
v -1 8 -3
v -1 8 -5
v -1 8 -8
v -1 8 -13
v -1 8 -15
v -1 8 -17
v -1 8 -19
v -1 8 -20
v -1 8 -23
v -1 9 16
v -1 9 14
v -1 9 12
v -1 9 8
v -1 9 6
v -1 9 4
v -1 9 -15
v -1 9 -16
v -1 9 -17
v -1 9 -19
v -1 9 -20
v -1 9 -23
v -1 10 13
v -1 10 12
v -1 10 8
v -1 10 6
v -1 10 4
v -1 10 3
v -1 10 -3
v -1 10 -13
v -1 10 -14
v -1 10 -15
v -1 10 -16
v -1 11 14
v -1 11 13
v -1 11 6
v -1 11 3
v -1 11 -3
v -1 11 -13
v -1 11 -14
v 0 0 -3
v 0 0 -5
v 0 1 -2
v 0 1 -3
v 0 1 -5
v 0 1 -6
v 0 2 -2
v 0 2 -3
v 0 2 -4
v 0 2 -6
v 0 2 -7
v 0 2 -10
v 0 2 -11
v 0 3 -3
v 0 3 -4
v 0 3 -5
v 0 3 -6
v 0 3 -11
v 0 3 -12
v 0 4 -5
v 0 4 -6
v 0 4 -7
v 0 4 -8
v 0 4 -19
v 0 4 -24
v 0 4 -25
v 0 5 -4
v 0 5 -5
v 0 5 -8
v 0 5 -10
v 0 5 -17
v 0 5 -19
v 0 5 -20
v 0 5 -24
v 0 5 -25
v 0 6 -8
v 0 6 -9
v 0 6 -10
v 0 6 -12
v 0 6 -14
v 0 6 -17
v 0 6 -19
v 0 6 -20
v 0 7 14
v 0 7 13
v 0 7 8
v 0 7 6
v 0 7 4
v 0 7 3
v 0 7 -3
v 0 7 -5
v 0 7 -6
v 0 7 -7
v 0 7 -8
v 0 7 -9
v 0 7 -12
v 0 7 -13
v 0 7 -14
v 0 7 -15
v 0 7 -19
v 0 8 16
v 0 8 14
v 0 8 13
v 0 8 8
v 0 8 6
v 0 8 4
v 0 8 3
v 0 8 -3
v 0 8 -5
v 0 8 -8
v 0 8 -13
v 0 8 -15
v 0 8 -17
v 0 8 -19
v 0 8 -20
v 0 8 -23
v 0 9 16
v 0 9 14
v 0 9 12
v 0 9 8
v 0 9 6
v 0 9 4
v 0 9 -15
v 0 9 -16
v 0 9 -17
v 0 9 -19
v 0 9 -20
v 0 9 -23
v 0 10 13
v 0 10 12
v 0 10 8
v 0 10 6
v 0 10 4
v 0 10 3
v 0 10 -3
v 0 10 -13
v 0 10 -14
v 0 10 -15
v 0 10 -16
v 0 11 14
v 0 11 13
v 0 11 6
v 0 11 3
v 0 11 -3
v 0 11 -13
v 0 11 -14
v 1 5 -20
v 1 5 -24
v 1 5 -25
v 1 6 -19
v 1 6 -20
v 1 7 -5
v 1 7 -8
v 1 7 -15
v 1 7 -19
v 1 8 4
v 1 8 3
v 1 8 -3
v 1 8 -5
v 1 8 -8
v 1 8 -13
v 1 8 -15
v 1 8 -17
v 1 8 -19
v 1 8 -20
v 1 8 -23
v 1 9 -15
v 1 9 -17
v 1 9 -19
v 1 9 -20
v 1 9 -23
v 1 9 -24
v 1 9 -25
v 1 10 4
v 1 10 3
v 1 10 -3
v 1 10 -13
v 1 10 -15
v 1 11 -3
v 1 11 -13
v -1 8 16
v -1 9 16
v 0 8 16
v 0 9 16
v -1 7 14
v -1 8 14
v -1 9 14
v -1 11 14
v 0 7 14
v 0 8 14
v 0 9 14
v 0 11 14
v -1 7 8
v -1 8 8
v -1 9 8
v -1 10 8
v 0 7 8
v 0 8 8
v 0 9 8
v 0 10 8
v -1 10 6
v -1 11 6
v 0 10 6
v 0 11 6
v -2 8 4
v -2 10 4
v -1 7 4
v -1 8 4
v -1 9 4
v -1 10 4
v 0 7 4
v 0 8 4
v 0 9 4
v 0 10 4
v 1 8 4
v 1 10 4
v -1 1 -2
v -1 2 -2
v 0 1 -2
v 0 2 -2
v -2 10 -3
v -2 11 -3
v -1 0 -3
v -1 1 -3
v -1 2 -3
v -1 3 -3
v -1 10 -3
v -1 11 -3
v 0 0 -3
v 0 1 -3
v 0 2 -3
v 0 3 -3
v 0 10 -3
v 0 11 -3
v 1 10 -3
v 1 11 -3
v -4 9 -4
v -4 10 -4
v -2 9 -4
v -2 10 -4
v -1 3 -4
v -1 5 -4
v 0 3 -4
v 0 5 -4
v -2 7 -5
v -2 8 -5
v -1 5 -5
v -1 7 -5
v -1 8 -5
v 0 5 -5
v 0 7 -5
v 0 8 -5
v 1 7 -5
v 1 8 -5
v -1 6 -9
v -1 7 -9
v 0 6 -9
v 0 7 -9
v -1 2 -10
v -1 5 -10
v 0 2 -10
v 0 5 -10
v -2 7 -15
v -2 8 -15
v -1 7 -15
v -1 8 -15
v 0 7 -15
v 0 8 -15
v 1 7 -15
v 1 8 -15
v -1 5 -17
v -1 6 -17
v 0 5 -17
v 0 6 -17
v -2 6 -19
v -2 7 -19
v -2 8 -19
v -2 9 -19
v -1 4 -19
v -1 5 -19
v -1 6 -19
v -1 7 -19
v -1 8 -19
v -1 9 -19
v 0 4 -19
v 0 5 -19
v 0 6 -19
v 0 7 -19
v 0 8 -19
v 0 9 -19
v 1 6 -19
v 1 7 -19
v 1 8 -19
v 1 9 -19
v -2 5 -20
v -2 6 -20
v -1 5 -20
v -1 6 -20
v 0 5 -20
v 0 6 -20
v 1 5 -20
v 1 6 -20
v -2 8 -23
v -2 9 -23
v -1 8 -23
v -1 9 -23
v 0 8 -23
v 0 9 -23
v 1 8 -23
v 1 9 -23
v -1 7 13
v -1 8 13
v -1 10 13
v -1 11 13
v 0 7 13
v 0 8 13
v 0 10 13
v 0 11 13
v -1 9 12
v -1 10 12
v 0 9 12
v 0 10 12
v -1 7 6
v -1 8 6
v -1 9 6
v -1 10 6
v 0 7 6
v 0 8 6
v 0 9 6
v 0 10 6
v -4 9 -5
v -4 10 -5
v -2 9 -5
v -2 10 -5
v -1 0 -5
v -1 1 -5
v 0 0 -5
v 0 1 -5
v -1 1 -6
v -1 2 -6
v 0 1 -6
v 0 2 -6
v -1 2 -7
v -1 4 -7
v 0 2 -7
v 0 4 -7
v -2 7 -8
v -2 8 -8
v -1 4 -8
v -1 5 -8
v -1 6 -8
v -1 7 -8
v -1 8 -8
v 0 4 -8
v 0 5 -8
v 0 6 -8
v 0 7 -8
v 0 8 -8
v 1 7 -8
v 1 8 -8
v -1 2 -11
v -1 3 -11
v 0 2 -11
v 0 3 -11
v -1 3 -12
v -1 6 -12
v 0 3 -12
v 0 6 -12
v -2 10 -13
v -2 11 -13
v -1 10 -13
v -1 11 -13
v 0 10 -13
v 0 11 -13
v 1 10 -13
v 1 11 -13
v -1 10 -14
v -1 11 -14
v 0 10 -14
v 0 11 -14
v -2 9 -15
v -2 10 -15
v -1 9 -15
v -1 10 -15
v 0 9 -15
v 0 10 -15
v 1 9 -15
v 1 10 -15
v -1 9 -16
v -1 10 -16
v 0 9 -16
v 0 10 -16
v -2 8 -17
v -2 9 -17
v -1 8 -17
v -1 9 -17
v 0 8 -17
v 0 9 -17
v 1 8 -17
v 1 9 -17
v -2 8 -20
v -2 9 -20
v -1 8 -20
v -1 9 -20
v 0 8 -20
v 0 9 -20
v 1 8 -20
v 1 9 -20
v -2 5 -25
v -2 9 -25
v -1 4 -25
v -1 5 -25
v 0 4 -25
v 0 5 -25
v 1 5 -25
v 1 9 -25
v -1 0 -3
v 0 0 -3
v -1 0 -5
v 0 0 -5
v -1 1 -2
v 0 1 -2
v -1 1 -3
v 0 1 -3
v -1 1 -5
v 0 1 -5
v -1 1 -6
v 0 1 -6
v -1 2 -6
v 0 2 -6
v -1 2 -7
v 0 2 -7
v -1 2 -10
v 0 2 -10
v -1 2 -11
v 0 2 -11
v -1 3 -11
v 0 3 -11
v -1 3 -12
v 0 3 -12
v -1 4 -7
v 0 4 -7
v -1 4 -8
v 0 4 -8
v -1 4 -19
v 0 4 -19
v -1 4 -24
v 0 4 -24
v -1 4 -25
v 0 4 -25
v -1 5 -8
v 0 5 -8
v -1 5 -10
v 0 5 -10
v -1 5 -17
v 0 5 -17
v -1 5 -19
v 0 5 -19
v -2 5 -20
v -1 5 -20
v 0 5 -20
v 1 5 -20
v -2 5 -24
v -1 5 -24
v 0 5 -24
v 1 5 -24
v -2 5 -25
v -1 5 -25
v 0 5 -25
v 1 5 -25
v -1 6 -12
v 0 6 -12
v -1 6 -14
v 0 6 -14
v -1 6 -17
v 0 6 -17
v -2 6 -19
v -1 6 -19
v 0 6 -19
v 1 6 -19
v -2 6 -20
v -1 6 -20
v 0 6 -20
v 1 6 -20
v -1 7 14
v 0 7 14
v -1 7 13
v 0 7 13
v -1 7 8
v 0 7 8
v -1 7 6
v 0 7 6
v -1 7 4
v 0 7 4
v -1 7 3
v 0 7 3
v -1 7 -3
v 0 7 -3
v -2 7 -5
v -1 7 -5
v 0 7 -5
v 1 7 -5
v -1 7 -6
v 0 7 -6
v -1 7 -7
v 0 7 -7
v -2 7 -8
v -1 7 -8
v 0 7 -8
v 1 7 -8
v -1 7 -9
v 0 7 -9
v -2 7 -15
v -1 7 -15
v 0 7 -15
v 1 7 -15
v -2 7 -19
v -1 7 -19
v 0 7 -19
v 1 7 -19
v -1 8 16
v 0 8 16
v -1 8 14
v 0 8 14
v -1 8 13
v 0 8 13
v -1 8 8
v 0 8 8
v -1 8 6
v 0 8 6
v -2 8 4
v -1 8 4
v 0 8 4
v 1 8 4
v -2 8 3
v -1 8 3
v 0 8 3
v 1 8 3
v -2 8 -3
v -1 8 -3
v 0 8 -3
v 1 8 -3
v -2 8 -5
v -1 8 -5
v 0 8 -5
v 1 8 -5
v -2 8 -8
v -1 8 -8
v 0 8 -8
v 1 8 -8
v -2 8 -13
v -1 8 -13
v 0 8 -13
v 1 8 -13
v -2 8 -15
v -1 8 -15
v 0 8 -15
v 1 8 -15
v -4 9 -4
v -2 9 -4
v -4 9 -5
v -2 9 -5
v -1 10 6
v 0 10 6
v -1 10 4
v 0 10 4
v -1 2 -2
v 0 2 -2
v -1 2 -3
v 0 2 -3
v -1 3 -3
v 0 3 -3
v -1 3 -4
v 0 3 -4
v -1 5 -4
v 0 5 -4
v -1 5 -5
v 0 5 -5
v -1 6 -8
v 0 6 -8
v -1 6 -9
v 0 6 -9
v -2 8 -17
v -1 8 -17
v 0 8 -17
v 1 8 -17
v -2 8 -19
v -1 8 -19
v 0 8 -19
v 1 8 -19
v -2 8 -20
v -1 8 -20
v 0 8 -20
v 1 8 -20
v -2 8 -23
v -1 8 -23
v 0 8 -23
v 1 8 -23
v -1 9 16
v 0 9 16
v -1 9 14
v 0 9 14
v -1 9 12
v 0 9 12
v -1 9 8
v 0 9 8
v -1 9 6
v 0 9 6
v -1 9 4
v 0 9 4
v -2 9 -15
v -1 9 -15
v 0 9 -15
v 1 9 -15
v -1 9 -16
v 0 9 -16
v -2 9 -17
v -1 9 -17
v 0 9 -17
v 1 9 -17
v -2 9 -19
v -1 9 -19
v 0 9 -19
v 1 9 -19
v -2 9 -20
v -1 9 -20
v 0 9 -20
v 1 9 -20
v -2 9 -23
v -1 9 -23
v 0 9 -23
v 1 9 -23
v -2 9 -24
v 1 9 -24
v -2 9 -25
v 1 9 -25
v -1 10 13
v 0 10 13
v -1 10 12
v 0 10 12
v -1 10 8
v 0 10 8
v -1 10 6
v 0 10 6
v -2 10 4
v -1 10 4
v 0 10 4
v 1 10 4
v -2 10 3
v -1 10 3
v 0 10 3
v 1 10 3
v -2 10 -3
v -1 10 -3
v 0 10 -3
v 1 10 -3
v -4 10 -4
v -2 10 -4
v -4 10 -5
v -2 10 -5
v -2 10 -13
v -1 10 -13
v 0 10 -13
v 1 10 -13
v -1 10 -14
v 0 10 -14
v -2 10 -15
v -1 10 -15
v 0 10 -15
v 1 10 -15
v -1 10 -16
v 0 10 -16
v -1 11 14
v 0 11 14
v -1 11 13
v 0 11 13
v -1 11 6
v 0 11 6
v -1 11 3
v 0 11 3
v -2 11 -3
v -1 11 -3
v 0 11 -3
v 1 11 -3
v -2 11 -13
v -1 11 -13
v 0 11 -13
v 1 11 -13
v -1 11 -14
v 0 11 -14

# faces
f 3/2/1 2/2/1 1/2/1
f 4/2/1 2/2/1 3/2/1
f 9/1/1 6/1/1 5/1/1
f 13/1/1 9/1/1 8/1/1
f 17/2/1 11/2/1 10/2/1
f 18/2/1 11/2/1 17/2/1
f 20/1/1 13/1/1 12/1/1
f 21/1/1 13/1/1 20/1/1
f 22/1/1 9/1/1 13/1/1
f 22/1/1 13/1/1 21/1/1
f 23/1/1 6/1/1 9/1/1
f 23/1/1 9/1/1 22/1/1
f 24/1/1 6/1/1 23/1/1
f 25/2/1 19/2/1 18/2/1
f 25/2/1 17/2/1 16/2/1
f 25/2/1 18/2/1 17/2/1
f 26/2/1 19/2/1 25/2/1
f 27/2/1 19/2/1 26/2/1
f 28/1/1 21/1/1 20/1/1
f 28/1/1 20/1/1 19/1/1
f 29/1/1 21/1/1 28/1/1
f 30/1/1 23/1/1 22/1/1
f 31/1/1 23/1/1 30/1/1
f 32/1/1 6/1/1 24/1/1
f 33/2/1 7/2/1 6/2/1
f 33/1/1 6/1/1 32/1/1
f 34/2/1 7/2/1 33/2/1
f 35/2/1 15/2/1 14/2/1
f 36/1/1 16/1/1 15/1/1
f 36/2/1 15/2/1 35/2/1
f 37/2/1 25/2/1 16/2/1
f 37/1/1 16/1/1 36/1/1
f 38/2/1 25/2/1 37/2/1
f 39/3/1 27/3/1 26/3/1
f 40/2/1 19/2/1 27/2/1
f 40/3/1 27/3/1 39/3/1
f 41/1/1 28/1/1 19/1/1
f 41/2/1 19/2/1 40/2/1
f 42/1/1 28/1/1 41/1/1
f 43/2/1 39/2/1 38/2/1
f 43/2/1 40/2/1 39/2/1
f 43/2/1 41/2/1 40/2/1
f 43/2/1 38/2/1 37/2/1
f 44/2/1 41/2/1 43/2/1
f 48/2/1 46/2/1 45/2/1
f 49/2/1 46/2/1 48/2/1
f 51/2/1 48/2/1 47/2/1
f 52/3/1 49/3/1 48/3/1
f 52/2/1 48/2/1 51/2/1
f 53/3/1 49/3/1 52/3/1
f 54/2/1 50/2/1 49/2/1
f 58/2/1 53/2/1 52/2/1
f 59/3/1 49/3/1 53/3/1
f 59/2/1 53/2/1 58/2/1
f 60/2/1 55/2/1 54/2/1
f 60/3/1 49/3/1 59/3/1
f 60/2/1 54/2/1 49/2/1
f 61/2/1 55/2/1 60/2/1
f 62/1/1 57/1/1 56/1/1
f 64/2/1 60/2/1 59/2/1
f 64/3/1 61/3/1 60/3/1
f 65/2/1 55/2/1 61/2/1
f 65/3/1 61/3/1 64/3/1
f 66/2/1 55/2/1 65/2/1
f 71/2/1 64/2/1 59/2/1
f 71/2/1 65/2/1 64/2/1
f 72/2/1 65/2/1 71/2/1
f 73/2/1 67/2/1 66/2/1
f 74/1/1 63/1/1 62/1/1
f 74/1/1 62/1/1 56/1/1
f 76/1/1 69/1/1 68/1/1
f 77/1/1 69/1/1 76/1/1
f 78/2/1 70/2/1 69/2/1
f 78/1/1 69/1/1 77/1/1
f 79/2/1 70/2/1 78/2/1
f 80/2/1 73/2/1 66/2/1
f 80/2/1 74/2/1 73/2/1
f 81/2/1 74/2/1 80/2/1
f 82/1/1 63/1/1 74/1/1
f 82/2/1 74/2/1 81/2/1
f 83/1/1 63/1/1 82/1/1
f 85/1/1 77/1/1 76/1/1
f 85/1/1 76/1/1 75/1/1
f 86/1/1 77/1/1 85/1/1
f 87/1/1 77/1/1 86/1/1
f 95/2/1 65/2/1 72/2/1
f 96/3/1 66/3/1 65/3/1
f 96/2/1 65/2/1 95/2/1
f 97/2/1 80/2/1 66/2/1
f 97/3/1 66/3/1 96/3/1
f 98/2/1 80/2/1 97/2/1
f 99/1/1 83/1/1 82/1/1
f 99/1/1 82/1/1 81/1/1
f 100/2/1 84/2/1 83/2/1
f 100/1/1 83/1/1 99/1/1
f 101/2/1 84/2/1 100/2/1
f 102/1/1 85/1/1 84/1/1
f 102/2/1 84/2/1 101/2/1
f 102/1/1 86/1/1 85/1/1
f 103/1/1 86/1/1 102/1/1
f 104/1/1 86/1/1 103/1/1
f 106/2/1 89/2/1 88/2/1
f 107/2/1 89/2/1 106/2/1
f 108/2/1 91/2/1 90/2/1
f 109/2/1 91/2/1 108/2/1
f 110/2/1 93/2/1 92/2/1
f 111/1/1 94/1/1 93/1/1
f 111/2/1 93/2/1 110/2/1
f 112/2/1 95/2/1 94/2/1
f 112/1/1 94/1/1 111/1/1
f 113/2/1 95/2/1 112/2/1
f 114/2/1 99/2/1 98/2/1
f 114/2/1 101/2/1 100/2/1
f 114/2/1 100/2/1 99/2/1
f 115/1/1 103/1/1 102/1/1
f 115/2/1 101/2/1 114/2/1
f 115/1/1 102/1/1 101/1/1
f 116/1/1 103/1/1 115/1/1
f 121/2/1 110/2/1 109/2/1
f 121/2/1 106/2/1 105/2/1
f 121/2/1 108/2/1 107/2/1
f 121/2/1 109/2/1 108/2/1
f 121/2/1 107/2/1 106/2/1
f 122/2/1 110/2/1 121/2/1
f 123/2/1 110/2/1 122/2/1
f 124/2/1 110/2/1 123/2/1
f 125/2/1 110/2/1 124/2/1
f 126/2/1 110/2/1 125/2/1
f 129/1/1 118/1/1 117/1/1
f 130/1/1 118/1/1 129/1/1
f 131/1/1 120/1/1 119/1/1
f 132/1/1 120/1/1 131/1/1
f 133/2/1 123/2/1 122/2/1
f 134/2/1 123/2/1 133/2/1
f 135/2/1 125/2/1 124/2/1
f 136/2/1 125/2/1 135/2/1
f 142/1/1 128/1/1 127/1/1
f 143/1/1 128/1/1 142/1/1
f 144/2/1 133/2/1 122/2/1
f 145/2/1 133/2/1 144/2/1
f 146/2/1 137/2/1 136/2/1
f 146/2/1 138/2/1 137/2/1
f 147/1/1 139/1/1 138/1/1
f 147/2/1 138/2/1 146/2/1
f 148/1/1 139/1/1 147/1/1
f 149/2/1 141/2/1 140/2/1
f 150/2/1 141/2/1 149/2/1
f 151/2/2 152/2/2 154/2/2
f 154/2/2 152/2/2 155/2/2
f 153/2/2 154/2/2 157/2/2
f 154/3/2 155/3/2 158/3/2
f 157/2/2 154/2/2 158/2/2
f 158/3/2 155/3/2 159/3/2
f 155/2/2 156/2/2 160/2/2
f 158/2/2 159/2/2 164/2/2
f 159/3/2 155/3/2 165/3/2
f 164/2/2 159/2/2 165/2/2
f 160/2/2 161/2/2 166/2/2
f 165/3/2 155/3/2 166/3/2
f 155/2/2 160/2/2 166/2/2
f 166/2/2 161/2/2 167/2/2
f 162/1/2 163/1/2 168/1/2
f 165/2/2 166/2/2 170/2/2
f 166/3/2 167/3/2 170/3/2
f 167/2/2 161/2/2 171/2/2
f 170/3/2 167/3/2 171/3/2
f 171/2/2 161/2/2 172/2/2
f 165/2/2 170/2/2 177/2/2
f 170/2/2 171/2/2 177/2/2
f 177/2/2 171/2/2 178/2/2
f 172/2/2 173/2/2 179/2/2
f 168/1/2 169/1/2 180/1/2
f 162/1/2 168/1/2 180/1/2
f 174/1/2 175/1/2 182/1/2
f 182/1/2 175/1/2 183/1/2
f 175/2/2 176/2/2 184/2/2
f 183/1/2 175/1/2 184/1/2
f 184/2/2 176/2/2 185/2/2
f 172/2/2 179/2/2 186/2/2
f 179/2/2 180/2/2 186/2/2
f 186/2/2 180/2/2 187/2/2
f 180/1/2 169/1/2 188/1/2
f 187/2/2 180/2/2 188/2/2
f 188/1/2 169/1/2 189/1/2
f 182/1/2 183/1/2 191/1/2
f 181/1/2 182/1/2 191/1/2
f 191/1/2 183/1/2 192/1/2
f 192/1/2 183/1/2 193/1/2
f 178/2/2 171/2/2 201/2/2
f 171/3/2 172/3/2 202/3/2
f 201/2/2 171/2/2 202/2/2
f 172/2/2 186/2/2 203/2/2
f 202/3/2 172/3/2 203/3/2
f 203/2/2 186/2/2 204/2/2
f 188/1/2 189/1/2 205/1/2
f 187/1/2 188/1/2 205/1/2
f 189/2/2 190/2/2 206/2/2
f 205/1/2 189/1/2 206/1/2
f 206/2/2 190/2/2 207/2/2
f 190/1/2 191/1/2 208/1/2
f 207/2/2 190/2/2 208/2/2
f 191/1/2 192/1/2 208/1/2
f 208/1/2 192/1/2 209/1/2
f 209/1/2 192/1/2 210/1/2
f 194/2/2 195/2/2 212/2/2
f 212/2/2 195/2/2 213/2/2
f 196/2/2 197/2/2 214/2/2
f 214/2/2 197/2/2 215/2/2
f 198/2/2 199/2/2 216/2/2
f 199/1/2 200/1/2 217/1/2
f 216/2/2 199/2/2 217/2/2
f 200/2/2 201/2/2 218/2/2
f 217/1/2 200/1/2 218/1/2
f 218/2/2 201/2/2 219/2/2
f 204/2/2 205/2/2 220/2/2
f 206/2/2 207/2/2 220/2/2
f 205/2/2 206/2/2 220/2/2
f 208/1/2 209/1/2 221/1/2
f 220/2/2 207/2/2 221/2/2
f 207/1/2 208/1/2 221/1/2
f 221/1/2 209/1/2 222/1/2
f 215/2/2 216/2/2 227/2/2
f 211/2/2 212/2/2 227/2/2
f 213/2/2 214/2/2 227/2/2
f 214/2/2 215/2/2 227/2/2
f 212/2/2 213/2/2 227/2/2
f 227/2/2 216/2/2 228/2/2
f 228/2/2 216/2/2 229/2/2
f 229/2/2 216/2/2 230/2/2
f 230/2/2 216/2/2 231/2/2
f 231/2/2 216/2/2 232/2/2
f 223/1/2 224/1/2 235/1/2
f 235/1/2 224/1/2 236/1/2
f 225/1/2 226/1/2 237/1/2
f 237/1/2 226/1/2 238/1/2
f 228/2/2 229/2/2 239/2/2
f 239/2/2 229/2/2 240/2/2
f 230/2/2 231/2/2 241/2/2
f 241/2/2 231/2/2 242/2/2
f 233/1/2 234/1/2 248/1/2
f 248/1/2 234/1/2 249/1/2
f 228/2/2 239/2/2 250/2/2
f 250/2/2 239/2/2 251/2/2
f 242/2/2 243/2/2 252/2/2
f 243/2/2 244/2/2 252/2/2
f 244/1/2 245/1/2 253/1/2
f 252/2/2 244/2/2 253/2/2
f 253/1/2 245/1/2 254/1/2
f 246/2/2 247/2/2 255/2/2
f 255/2/2 247/2/2 256/2/2
f 257/1/2 258/1/2 261/1/2
f 260/1/2 261/1/2 265/1/2
f 262/2/2 263/2/2 269/2/2
f 269/2/2 263/2/2 270/2/2
f 264/1/2 265/1/2 272/1/2
f 272/1/2 265/1/2 273/1/2
f 265/1/2 261/1/2 274/1/2
f 273/1/2 265/1/2 274/1/2
f 261/1/2 258/1/2 275/1/2
f 274/1/2 261/1/2 275/1/2
f 275/1/2 258/1/2 276/1/2
f 272/1/2 273/1/2 277/1/2
f 271/1/2 272/1/2 277/1/2
f 277/1/2 273/1/2 278/1/2
f 274/1/2 275/1/2 279/1/2
f 279/1/2 275/1/2 280/1/2
f 276/1/2 258/1/2 281/1/2
f 258/2/2 259/2/2 282/2/2
f 281/1/2 258/1/2 282/1/2
f 282/2/2 259/2/2 283/2/2
f 266/2/2 267/2/2 284/2/2
f 267/1/2 268/1/2 285/1/2
f 284/2/2 267/2/2 285/2/2
f 270/2/2 271/2/2 286/2/2
f 285/1/2 268/1/2 286/1/2
f 268/2/2 269/2/2 286/2/2
f 269/2/2 270/2/2 286/2/2
f 271/1/2 277/1/2 287/1/2
f 286/2/2 271/2/2 287/2/2
f 287/1/2 277/1/2 288/1/2
f 286/2/2 287/2/2 289/2/2
f 289/2/2 287/2/2 290/2/2
f 293/2/3 292/2/3 291/2/3
f 294/2/3 292/2/3 293/2/3
f 299/2/3 296/2/3 295/2/3
f 300/2/3 296/2/3 299/2/3
f 301/2/3 298/2/3 297/2/3
f 302/2/3 298/2/3 301/2/3
f 307/2/3 304/2/3 303/2/3
f 308/2/3 304/2/3 307/2/3
f 309/2/3 306/2/3 305/2/3
f 310/2/3 306/2/3 309/2/3
f 313/2/3 312/2/3 311/2/3
f 314/2/3 312/2/3 313/2/3
f 318/2/3 316/2/3 315/2/3
f 319/2/3 316/2/3 318/2/3
f 320/2/3 316/2/3 319/2/3
f 321/2/3 318/2/3 317/2/3
f 322/2/3 318/2/3 321/2/3
f 323/2/3 320/2/3 319/2/3
f 324/2/3 320/2/3 323/2/3
f 325/2/3 323/2/3 322/2/3
f 325/2/3 324/2/3 323/2/3
f 326/2/3 324/2/3 325/2/3
f 329/2/3 328/2/3 327/2/3
f 330/2/3 328/2/3 329/2/3
f 337/2/3 332/2/3 331/2/3
f 338/2/3 332/2/3 337/2/3
f 339/2/3 334/2/3 333/2/3
f 340/2/3 334/2/3 339/2/3
f 341/2/3 336/2/3 335/2/3
f 342/2/3 336/2/3 341/2/3
f 345/2/3 344/2/3 343/2/3
f 346/2/3 344/2/3 345/2/3
f 349/2/3 348/2/3 347/2/3
f 350/2/3 348/2/3 349/2/3
f 353/2/3 352/2/3 351/2/3
f 354/2/3 352/2/3 353/2/3
f 358/2/3 356/2/3 355/2/3
f 359/2/3 356/2/3 358/2/3
f 360/2/3 358/2/3 357/2/3
f 361/2/3 358/2/3 360/2/3
f 363/2/3 362/2/3 361/2/3
f 364/2/3 362/2/3 363/2/3
f 367/1/3 366/1/3 365/1/3
f 368/1/3 366/1/3 367/1/3
f 371/1/3 370/1/3 369/1/3
f 372/1/3 370/1/3 371/1/3
f 375/1/3 374/1/3 373/1/3
f 376/1/3 374/1/3 375/1/3
f 379/1/3 378/1/3 377/1/3
f 380/1/3 378/1/3 379/1/3
f 383/1/3 382/1/3 381/1/3
f 384/1/3 382/1/3 383/1/3
f 391/1/3 386/1/3 385/1/3
f 392/1/3 386/1/3 391/1/3
f 393/1/3 388/1/3 387/1/3
f 394/1/3 388/1/3 393/1/3
f 395/1/3 390/1/3 389/1/3
f 396/1/3 390/1/3 395/1/3
f 401/1/3 398/1/3 397/1/3
f 402/1/3 398/1/3 401/1/3
f 403/1/3 400/1/3 399/1/3
f 404/1/3 400/1/3 403/1/3
f 407/1/3 406/1/3 405/1/3
f 408/1/3 406/1/3 407/1/3
f 411/1/3 410/1/3 409/1/3
f 412/1/3 410/1/3 411/1/3
f 415/1/3 414/1/3 413/1/3
f 416/1/3 414/1/3 415/1/3
f 419/1/3 418/1/3 417/1/3
f 420/1/3 418/1/3 419/1/3
f 421/2/4 422/2/4 425/2/4
f 425/2/4 422/2/4 426/2/4
f 423/2/4 424/2/4 427/2/4
f 427/2/4 424/2/4 428/2/4
f 429/2/4 430/2/4 431/2/4
f 431/2/4 430/2/4 432/2/4
f 433/2/4 434/2/4 437/2/4
f 437/2/4 434/2/4 438/2/4
f 435/2/4 436/2/4 439/2/4
f 439/2/4 436/2/4 440/2/4
f 441/2/4 442/2/4 443/2/4
f 443/2/4 442/2/4 444/2/4
f 445/2/4 446/2/4 447/2/4
f 447/2/4 446/2/4 448/2/4
f 449/2/4 450/2/4 451/2/4
f 451/2/4 450/2/4 452/2/4
f 453/2/4 454/2/4 455/2/4
f 455/2/4 454/2/4 456/2/4
f 457/2/4 458/2/4 462/2/4
f 462/2/4 458/2/4 463/2/4
f 459/2/4 460/2/4 464/2/4
f 464/2/4 460/2/4 465/2/4
f 461/2/4 462/2/4 466/2/4
f 466/2/4 462/2/4 467/2/4
f 467/2/4 468/2/4 469/2/4
f 469/2/4 468/2/4 470/2/4
f 471/1/4 472/1/4 473/1/4
f 473/1/4 472/1/4 474/1/4
f 475/1/4 476/1/4 477/1/4
f 477/1/4 476/1/4 478/1/4
f 479/2/4 480/2/4 481/2/4
f 481/2/4 480/2/4 482/2/4
f 483/2/4 484/2/4 485/2/4
f 485/2/4 484/2/4 486/2/4
f 487/2/4 488/2/4 489/2/4
f 489/2/4 488/2/4 490/2/4
f 491/1/4 492/1/4 493/1/4
f 493/1/4 492/1/4 494/1/4
f 495/1/4 496/1/4 497/1/4
f 497/1/4 496/1/4 498/1/4
f 499/1/4 500/1/4 501/1/4
f 501/1/4 500/1/4 502/1/4
f 503/1/4 504/1/4 505/1/4
f 505/1/4 504/1/4 506/1/4
f 507/1/4 508/1/4 509/1/4
f 509/1/4 508/1/4 510/1/4
f 511/1/4 512/1/4 513/1/4
f 513/1/4 512/1/4 514/1/4
f 515/1/4 516/1/4 517/1/4
f 517/1/4 516/1/4 518/1/4
f 519/2/4 520/2/4 522/2/4
f 521/2/4 522/2/4 523/2/4
f 522/2/4 520/2/4 524/2/4
f 523/2/4 522/2/4 524/2/4
f 524/2/4 520/2/4 525/2/4
f 525/2/4 520/2/4 526/2/4
f 529/2/5 528/2/5 527/2/5
f 530/2/5 528/2/5 529/2/5
f 533/2/5 532/2/5 531/2/5
f 534/2/5 532/2/5 533/2/5
f 537/2/5 536/2/5 535/2/5
f 538/2/5 536/2/5 537/2/5
f 541/2/5 540/2/5 539/2/5
f 542/2/5 540/2/5 541/2/5
f 545/1/5 544/1/5 543/1/5
f 546/1/5 544/1/5 545/1/5
f 549/1/5 548/1/5 547/1/5
f 550/1/5 548/1/5 549/1/5
f 553/2/5 552/2/5 551/2/5
f 554/2/5 552/2/5 553/2/5
f 557/1/5 556/1/5 555/1/5
f 558/1/5 556/1/5 557/1/5
f 559/2/5 558/2/5 557/2/5
f 560/2/5 558/2/5 559/2/5
f 563/2/5 562/2/5 561/2/5
f 564/2/5 562/2/5 563/2/5
f 567/1/5 566/1/5 565/1/5
f 568/1/5 566/1/5 567/1/5
f 573/1/5 570/1/5 569/1/5
f 574/1/5 570/1/5 573/1/5
f 575/1/5 572/1/5 571/1/5
f 576/1/5 572/1/5 575/1/5
f 577/2/5 574/2/5 573/2/5
f 578/2/5 574/2/5 577/2/5
f 579/2/5 576/2/5 575/2/5
f 580/2/5 576/2/5 579/2/5
f 583/2/5 582/2/5 581/2/5
f 584/2/5 582/2/5 583/2/5
f 585/1/5 584/1/5 583/1/5
f 586/1/5 584/1/5 585/1/5
f 591/1/5 588/1/5 587/1/5
f 592/1/5 588/1/5 591/1/5
f 593/1/5 590/1/5 589/1/5
f 594/1/5 590/1/5 593/1/5
f 597/2/5 596/2/5 595/2/5
f 598/2/5 596/2/5 597/2/5
f 601/2/5 600/2/5 599/2/5
f 602/2/5 600/2/5 601/2/5
f 605/2/5 604/2/5 603/2/5
f 606/2/5 604/2/5 605/2/5
f 607/1/5 606/1/5 605/1/5
f 608/1/5 606/1/5 607/1/5
f 610/2/5 608/2/5 607/2/5
f 611/2/5 608/2/5 610/2/5
f 613/2/5 610/2/5 609/2/5
f 614/2/5 612/2/5 611/2/5
f 615/2/5 613/2/5 609/2/5
f 616/2/5 612/2/5 614/2/5
f 617/2/5 615/2/5 609/2/5
f 618/2/5 615/2/5 617/2/5
f 619/2/5 612/2/5 616/2/5
f 620/2/5 612/2/5 619/2/5
f 621/2/5 619/2/5 618/2/5
f 622/2/5 619/2/5 621/2/5
f 627/1/5 624/1/5 623/1/5
f 628/1/5 624/1/5 627/1/5
f 629/1/5 626/1/5 625/1/5
f 630/1/5 626/1/5 629/1/5
f 633/2/5 632/2/5 631/2/5
f 634/2/5 632/2/5 633/2/5
f 637/2/5 636/2/5 635/2/5
f 638/2/5 636/2/5 637/2/5
f 642/2/5 640/2/5 639/2/5
f 643/2/5 640/2/5 642/2/5
f 645/2/5 642/2/5 641/2/5
f 646/2/5 642/2/5 645/2/5
f 647/2/5 644/2/5 643/2/5
f 648/2/5 644/2/5 647/2/5
f 649/1/5 646/1/5 645/1/5
f 650/1/5 646/1/5 649/1/5
f 651/1/5 648/1/5 647/1/5
f 652/1/5 648/1/5 651/1/5
f 653/2/5 650/2/5 649/2/5
f 654/2/5 650/2/5 653/2/5
f 655/2/5 652/2/5 651/2/5
f 656/2/5 652/2/5 655/2/5
f 661/2/5 658/2/5 657/2/5
f 662/2/5 658/2/5 661/2/5
f 663/2/5 660/2/5 659/2/5
f 664/2/5 660/2/5 663/2/5
f 665/1/5 662/1/5 661/1/5
f 666/1/5 662/1/5 665/1/5
f 667/1/5 664/1/5 663/1/5
f 668/1/5 664/1/5 667/1/5
f 671/2/5 670/2/5 669/2/5
f 672/2/5 670/2/5 671/2/5
f 675/2/5 674/2/5 673/2/5
f 676/2/5 674/2/5 675/2/5
f 677/2/6 678/2/6 679/2/6
f 679/2/6 678/2/6 680/2/6
f 681/2/6 682/2/6 683/2/6
f 683/2/6 682/2/6 684/2/6
f 685/2/6 686/2/6 687/2/6
f 687/2/6 686/2/6 688/2/6
f 689/2/6 690/2/6 691/2/6
f 691/2/6 690/2/6 692/2/6
f 693/1/6 694/1/6 697/1/6
f 697/1/6 694/1/6 698/1/6
f 695/1/6 696/1/6 699/1/6
f 699/1/6 696/1/6 700/1/6
f 701/1/6 702/1/6 705/1/6
f 705/1/6 702/1/6 706/1/6
f 703/1/6 704/1/6 707/1/6
f 707/1/6 704/1/6 708/1/6
f 709/2/6 710/2/6 711/2/6
f 711/2/6 710/2/6 712/2/6
f 713/2/6 714/2/6 715/2/6
f 715/2/6 714/2/6 716/2/6
f 717/2/6 718/2/6 719/2/6
f 719/2/6 718/2/6 720/2/6
f 721/1/6 722/1/6 725/1/6
f 723/1/6 724/1/6 726/1/6
f 721/1/6 725/1/6 727/1/6
f 725/1/6 726/1/6 727/1/6
f 727/1/6 726/1/6 728/1/6
f 726/1/6 724/1/6 729/1/6
f 728/1/6 726/1/6 729/1/6
f 729/1/6 724/1/6 730/1/6
f 728/1/6 729/1/6 732/1/6
f 732/1/6 729/1/6 733/1/6
f 731/1/6 732/1/6 735/1/6
f 733/1/6 734/1/6 735/1/6
f 732/1/6 733/1/6 735/1/6
f 735/1/6 734/1/6 736/1/6
f 736/1/6 734/1/6 737/1/6
f 737/1/6 734/1/6 738/1/6
f 736/1/6 737/1/6 740/1/6
f 740/1/6 737/1/6 741/1/6
f 739/1/6 740/1/6 743/1/6
f 741/1/6 742/1/6 743/1/6
f 740/1/6 741/1/6 743/1/6
f 743/1/6 742/1/6 744/1/6
f 743/2/6 744/2/6 745/2/6
f 745/2/6 744/2/6 746/2/6
f 747/2/6 748/2/6 749/2/6
f 749/2/6 748/2/6 750/2/6
f 751/2/6 752/2/6 753/2/6
f 753/2/6 752/2/6 754/2/6
f 755/2/6 756/2/6 759/2/6
f 759/2/6 756/2/6 760/2/6
f 757/2/6 758/2/6 761/2/6
f 761/2/6 758/2/6 762/2/6
f 759/1/6 760/1/6 763/1/6
f 763/1/6 760/1/6 764/1/6
f 761/1/6 762/1/6 765/1/6
f 765/1/6 762/1/6 766/1/6
f 767/2/6 768/2/6 769/2/6
f 769/2/6 768/2/6 770/2/6
f 771/1/6 772/1/6 775/1/6
f 773/1/6 774/1/6 776/1/6
f 771/1/6 775/1/6 777/1/6
f 775/1/6 776/1/6 777/1/6
f 777/1/6 776/1/6 778/1/6
f 776/1/6 774/1/6 779/1/6
f 778/1/6 776/1/6 779/1/6
f 779/1/6 774/1/6 780/1/6
f 778/1/6 779/1/6 781/1/6
f 781/1/6 779/1/6 782/1/6
f 783/2/6 784/2/6 785/2/6
f 785/2/6 784/2/6 786/2/6
f 787/2/6 788/2/6 789/2/6
f 789/2/6 788/2/6 790/2/6
f 789/1/6 790/1/6 792/1/6
f 792/1/6 790/1/6 793/1/6
f 792/2/6 793/2/6 795/2/6
f 793/2/6 794/2/6 795/2/6
f 791/2/6 792/2/6 795/2/6
f 795/2/6 794/2/6 796/2/6
f 796/2/6 794/2/6 797/2/6
f 797/2/6 794/2/6 798/2/6
f 796/2/6 797/2/6 799/2/6
f 799/2/6 797/2/6 800/2/6
