# MagicaVoxel @ ephtracy

# material
mtllib Evil_snowman.mtl
usemtl palette

# normals
vn -1 0 0
vn 1 0 0
vn 0 0 1
vn 0 0 -1
vn 0 -1 0
vn 0 1 0

# texcoords
vt 0.0683594 0.5
vt 0.0917969 0.5
vt 0.369141 0.5
vt 0.845703 0.5
vt 0.958984 0.5
vt 0.962891 0.5
vt 0.966797 0.5
vt 0.990234 0.5
vt 0.994141 0.5

# verts
v -8 8 4
v -8 8 3
v -8 8 -4
v -8 8 -5
v -8 9 4
v -8 9 3
v -8 9 -4
v -8 9 -5
v -8 10 3
v -8 10 2
v -8 10 -3
v -8 10 -4
v -8 11 3
v -8 11 2
v -8 11 -3
v -8 11 -4
v -7 9 3
v -7 9 2
v -7 9 -3
v -7 9 -4
v -7 10 3
v -7 10 2
v -7 10 -3
v -7 10 -4
v -3 0 3
v -3 0 1
v -3 0 -2
v -3 0 -4
v -3 1 3
v -3 1 2
v -3 1 1
v -3 1 -0
v -3 1 -2
v -3 2 2
v -3 2 1
v -3 2 -0
v -3 2 -1
v -3 2 -2
v -3 2 -3
v -3 2 -4
v -3 3 3
v -3 3 2
v -3 3 1
v -3 3 -0
v -3 3 -1
v -3 3 -2
v -3 4 -0
v -3 4 -1
v -3 4 -2
v -3 4 -3
v -3 5 3
v -3 5 -0
v -3 5 -1
v -3 5 -2
v -3 5 -3
v -3 5 -4
v -3 6 3
v -3 6 1
v -3 6 -0
v -3 6 -1
v -3 6 -3
v -3 6 -4
v -3 7 3
v -3 7 1
v -3 7 -0
v -3 7 -1
v -3 7 -2
v -3 7 -3
v -3 7 -4
v -3 13 -0
v -3 13 -1
v -3 14 -0
v -3 14 -1
v -2 7 2
v -2 7 1
v -2 7 -0
v -2 7 -1
v -2 7 -2
v -2 7 -3
v -2 8 1
v -2 8 -0
v -2 8 -1
v -2 8 -2
v -2 8 -3
v -2 9 2
v -2 9 1
v -2 9 -0
v -2 9 -1
v -2 9 -3
v -2 10 2
v -2 10 -0
v -2 10 -1
v -2 10 -2
v -2 10 -3
v -2 11 2
v -2 11 -0
v -2 11 -1
v -2 12 2
v -2 12 -3
v -2 15 2
v -2 15 1
v -2 15 -0
v -2 15 -2
v -2 15 -3
v -2 16 2
v -2 16 1
v -2 16 -0
v -2 16 -2
v -2 16 -3
v -1 12 1
v -1 12 -2
v -1 13 -0
v -1 13 -1
v -1 14 1
v -1 14 -0
v -1 14 -1
v -1 14 -2
v -1 15 1
v -1 15 -0
v -1 15 -1
v -1 15 -2
v -1 16 1
v -1 16 -0
v -1 16 -1
v -1 16 -2
v -1 17 -0
v -1 17 -1
v -1 17 -2
v -1 18 -0
v -1 18 -1
v -1 19 1
v -1 19 -2
v -7 8 4
v -7 8 3
v -7 8 -4
v -7 8 -5
v -7 9 4
v -7 9 3
v -7 9 -4
v -7 9 -5
v -7 10 3
v -7 10 2
v -7 10 -3
v -7 10 -4
v -7 11 3
v -7 11 2
v -7 11 -3
v -7 11 -4
v 1 9 3
v 1 9 2
v 1 9 -3
v 1 9 -4
v 1 10 3
v 1 10 2
v 1 10 -3
v 1 10 -4
v 2 12 1
v 2 12 -2
v 2 15 1
v 2 15 -2
v 2 16 1
v 2 16 -2
v 2 18 -1
v 2 18 -2
v 2 19 1
v 2 19 -1
v 2 19 -2
v 3 7 2
v 3 7 1
v 3 7 -0
v 3 7 -2
v 3 7 -3
v 3 8 2
v 3 8 1
v 3 8 -0
v 3 8 -1
v 3 9 -1
v 3 9 -3
v 3 10 2
v 3 10 1
v 3 10 -0
v 3 10 -3
v 3 12 2
v 3 12 1
v 3 12 -3
v 3 15 2
v 3 15 -2
v 3 15 -3
v 3 16 2
v 3 16 -2
v 3 16 -3
v 4 0 3
v 4 0 1
v 4 0 -0
v 4 0 -4
v 4 1 1
v 4 1 -0
v 4 1 -3
v 4 2 1
v 4 2 -0
v 4 2 -1
v 4 2 -3
v 4 2 -4
v 4 3 3
v 4 3 -0
v 4 3 -1
v 4 5 3
v 4 5 2
v 4 5 -1
v 4 5 -3
v 4 6 3
v 4 6 2
v 4 6 -0
v 4 6 -1
v 4 6 -2
v 4 6 -3
v 4 6 -4
v 4 7 3
v 4 7 2
v 4 7 -0
v 4 7 -2
v 4 7 -3
v 4 7 -4
v -8 8 4
v -8 9 4
v -7 8 4
v -7 9 4
v -8 10 3
v -8 11 3
v -7 9 3
v -7 10 3
v -7 11 3
v -3 0 3
v -3 1 3
v -3 3 3
v -3 5 3
v -3 6 3
v -3 7 3
v -2 0 3
v -2 1 3
v -2 5 3
v -2 6 3
v -1 5 3
v -1 6 3
v 0 0 3
v 0 1 3
v 0 3 3
v 0 5 3
v 0 6 3
v 1 2 3
v 1 3 3
v 1 5 3
v 1 6 3
v 1 7 3
v 1 9 3
v 1 10 3
v 2 0 3
v 2 2 3
v 2 3 3
v 2 5 3
v 2 6 3
v 3 2 3
v 3 3 3
v 3 5 3
v 4 0 3
v 4 3 3
v 4 5 3
v 4 6 3
v 4 7 3
v -2 7 2
v -2 9 2
v -2 10 2
v -2 11 2
v -2 12 2
v -2 15 2
v -2 16 2
v 0 7 2
v 0 9 2
v 0 11 2
v 0 12 2
v 1 7 2
v 1 9 2
v 1 10 2
v 1 11 2
v 1 15 2
v 1 16 2
v 2 7 2
v 2 8 2
v 2 9 2
v 2 10 2
v 2 11 2
v 2 12 2
v 2 15 2
v 2 16 2
v 3 7 2
v 3 8 2
v 3 10 2
v 3 12 2
v 3 15 2
v 3 16 2
v -1 12 1
v -1 14 1
v -1 15 1
v -1 16 1
v -1 19 1
v 0 12 1
v 0 13 1
v 0 14 1
v 0 15 1
v 0 16 1
v 0 17 1
v 1 13 1
v 1 14 1
v 1 15 1
v 1 16 1
v 1 17 1
v 2 12 1
v 2 15 1
v 2 16 1
v 2 19 1
v -3 13 -0
v -3 14 -0
v -2 13 -0
v -2 14 -0
v -1 13 -0
v -1 14 -0
v -8 10 -3
v -8 11 -3
v -7 9 -3
v -7 10 -3
v -7 11 -3
v -2 9 -3
v -2 10 -3
v -8 8 -4
v -8 9 -4
v -7 8 -4
v -7 9 -4
v -8 8 3
v -8 9 3
v -7 8 3
v -7 9 3
v -8 10 2
v -8 11 2
v -7 9 2
v -7 10 2
v -7 11 2
v -2 9 2
v -2 10 2
v -3 13 -1
v -3 14 -1
v -2 13 -1
v -2 14 -1
v -1 13 -1
v -1 14 -1
v -1 12 -2
v -1 14 -2
v -1 15 -2
v -1 16 -2
v -1 17 -2
v -1 19 -2
v 0 12 -2
v 0 13 -2
v 0 14 -2
v 0 15 -2
v 0 16 -2
v 0 17 -2
v 1 12 -2
v 1 13 -2
v 1 14 -2
v 1 18 -2
v 1 19 -2
v 2 12 -2
v 2 15 -2
v 2 16 -2
v 2 18 -2
v 2 19 -2
v -2 7 -3
v -2 8 -3
v -2 9 -3
v -2 10 -3
v -2 12 -3
v -2 15 -3
v -2 16 -3
v -1 7 -3
v -1 8 -3
v -1 9 -3
v -1 10 -3
v -1 12 -3
v -1 15 -3
v -1 16 -3
v 0 7 -3
v 0 8 -3
v 0 11 -3
v 0 12 -3
v 1 7 -3
v 1 8 -3
v 1 9 -3
v 1 10 -3
v 1 11 -3
v 1 12 -3
v 2 7 -3
v 2 9 -3
v 2 10 -3
v 2 15 -3
v 2 16 -3
v 3 7 -3
v 3 9 -3
v 3 10 -3
v 3 12 -3
v 3 15 -3
v 3 16 -3
v -8 10 -4
v -8 11 -4
v -7 9 -4
v -7 10 -4
v -7 11 -4
v -3 0 -4
v -3 2 -4
v -3 5 -4
v -3 6 -4
v -3 7 -4
v -2 0 -4
v -2 1 -4
v -2 2 -4
v -2 5 -4
v -2 6 -4
v -1 2 -4
v -1 3 -4
v -1 4 -4
v -1 5 -4
v -1 6 -4
v -1 7 -4
v 0 0 -4
v 0 1 -4
v 0 3 -4
v 0 4 -4
v 0 6 -4
v 0 7 -4
v 1 5 -4
v 1 6 -4
v 1 7 -4
v 1 9 -4
v 1 10 -4
v 2 0 -4
v 2 1 -4
v 2 5 -4
v 3 0 -4
v 3 1 -4
v 3 2 -4
v 3 5 -4
v 3 6 -4
v 4 0 -4
v 4 2 -4
v 4 6 -4
v 4 7 -4
v -8 8 -5
v -8 9 -5
v -7 8 -5
v -7 9 -5
v -3 0 3
v -2 0 3
v 0 0 3
v 2 0 3
v 4 0 3
v 0 0 2
v 2 0 2
v -3 0 1
v -2 0 1
v 3 0 1
v 4 0 1
v 3 0 -0
v 4 0 -0
v -3 0 -2
v -2 0 -2
v 0 0 -3
v 2 0 -3
v 3 0 -3
v -3 0 -4
v -2 0 -4
v 0 0 -4
v 2 0 -4
v 3 0 -4
v 4 0 -4
v -8 8 4
v -7 8 4
v -8 8 3
v -7 8 3
v -8 8 -4
v -7 8 -4
v -8 8 -5
v -7 8 -5
v -7 9 3
v 1 9 3
v -7 9 2
v -2 9 2
v 0 9 2
v 1 9 2
v -7 9 -3
v -2 9 -3
v -1 9 -3
v 1 9 -3
v -7 9 -4
v 1 9 -4
v -8 10 3
v -7 10 3
v -8 10 2
v -7 10 2
v -8 10 -3
v -7 10 -3
v -8 10 -4
v -7 10 -4
v -3 13 -0
v -2 13 -0
v -1 13 -0
v -3 13 -1
v -2 13 -1
v -1 13 -1
v -2 15 2
v 1 15 2
v 2 15 2
v 3 15 2
v -2 15 1
v -1 15 1
v 0 15 1
v 1 15 1
v 2 15 1
v -2 15 -0
v -1 15 -0
v -1 15 -1
v -2 15 -2
v -1 15 -2
v 0 15 -2
v 2 15 -2
v 3 15 -2
v -2 15 -3
v -1 15 -3
v 2 15 -3
v 3 15 -3
v -3 7 3
v 1 7 3
v 4 7 3
v -2 7 2
v 0 7 2
v 1 7 2
v 2 7 2
v 3 7 2
v 4 7 2
v -3 7 1
v -2 7 1
v 3 7 1
v -3 7 -0
v -2 7 -0
v 3 7 -0
v 4 7 -0
v -3 7 -1
v -2 7 -1
v -3 7 -2
v -2 7 -2
v 3 7 -2
v 4 7 -2
v -3 7 -3
v -2 7 -3
v -1 7 -3
v 0 7 -3
v 1 7 -3
v 2 7 -3
v 3 7 -3
v 4 7 -3
v -3 7 -4
v -1 7 -4
v 0 7 -4
v 1 7 -4
v 4 7 -4
v -8 9 4
v -7 9 4
v -8 9 3
v -7 9 3
v -8 9 -4
v -7 9 -4
v -8 9 -5
v -7 9 -5
v -7 10 3
v 1 10 3
v -7 10 2
v -2 10 2
v 1 10 2
v -7 10 -3
v -2 10 -3
v -1 10 -3
v 1 10 -3
v -7 10 -4
v 1 10 -4
v -8 11 3
v -7 11 3
v -8 11 2
v -7 11 2
v -8 11 -3
v -7 11 -3
v -8 11 -4
v -7 11 -4
v -2 12 2
v 0 12 2
v 2 12 2
v 3 12 2
v -1 12 1
v 0 12 1
v 2 12 1
v 3 12 1
v -1 12 -2
v 0 12 -2
v 1 12 -2
v 2 12 -2
v -2 12 -3
v -1 12 -3
v 0 12 -3
v 1 12 -3
v 3 12 -3
v -3 14 -0
v -2 14 -0
v -1 14 -0
v -3 14 -1
v -2 14 -1
v -1 14 -1
v -2 16 2
v 1 16 2
v 2 16 2
v 3 16 2
v -2 16 1
v -1 16 1
v 0 16 1
v 1 16 1
v 2 16 1
v -2 16 -0
v -1 16 -0
v -1 16 -1
v -2 16 -2
v -1 16 -2
v 0 16 -2
v 2 16 -2
v 3 16 -2
v -2 16 -3
v -1 16 -3
v 2 16 -3
v 3 16 -3
v -1 19 1
v 2 19 1
v 1 19 -1
v 2 19 -1
v -1 19 -2
v 1 19 -2
v 2 19 -2

# faces
f 5/3/1 2/3/1 1/3/1
f 6/3/1 2/3/1 5/3/1
f 7/3/1 4/3/1 3/3/1
f 8/3/1 4/3/1 7/3/1
f 13/3/1 10/3/1 9/3/1
f 14/3/1 10/3/1 13/3/1
f 15/3/1 12/3/1 11/3/1
f 16/3/1 12/3/1 15/3/1
f 21/3/1 18/3/1 17/3/1
f 22/3/1 18/3/1 21/3/1
f 23/3/1 20/3/1 19/3/1
f 24/3/1 20/3/1 23/3/1
f 29/7/1 26/7/1 25/7/1
f 30/7/1 26/7/1 29/7/1
f 31/6/1 27/6/1 26/6/1
f 31/7/1 26/7/1 30/7/1
f 32/6/1 27/6/1 31/6/1
f 33/5/1 28/5/1 27/5/1
f 33/6/1 27/6/1 32/6/1
f 34/7/1 32/7/1 31/7/1
f 34/5/1 30/5/1 29/5/1
f 34/7/1 31/7/1 30/7/1
f 35/7/1 32/7/1 34/7/1
f 36/5/1 33/5/1 32/5/1
f 36/7/1 32/7/1 35/7/1
f 37/5/1 33/5/1 36/5/1
f 38/5/1 28/5/1 33/5/1
f 38/5/1 33/5/1 37/5/1
f 39/5/1 28/5/1 38/5/1
f 40/5/1 28/5/1 39/5/1
f 41/5/1 34/5/1 29/5/1
f 42/6/1 35/6/1 34/6/1
f 42/5/1 34/5/1 41/5/1
f 43/5/1 37/5/1 36/5/1
f 43/6/1 35/6/1 42/6/1
f 43/5/1 36/5/1 35/5/1
f 44/5/1 37/5/1 43/5/1
f 45/7/1 38/7/1 37/7/1
f 45/5/1 37/5/1 44/5/1
f 46/5/1 39/5/1 38/5/1
f 46/7/1 38/7/1 45/7/1
f 47/6/1 42/6/1 41/6/1
f 47/6/1 44/6/1 43/6/1
f 47/7/1 45/7/1 44/7/1
f 47/6/1 43/6/1 42/6/1
f 48/5/1 46/5/1 45/5/1
f 48/7/1 45/7/1 47/7/1
f 49/5/1 39/5/1 46/5/1
f 49/5/1 46/5/1 48/5/1
f 50/6/1 40/6/1 39/6/1
f 50/5/1 39/5/1 49/5/1
f 51/6/1 47/6/1 41/6/1
f 52/5/1 48/5/1 47/5/1
f 52/6/1 47/6/1 51/6/1
f 52/5/1 49/5/1 48/5/1
f 53/5/1 49/5/1 52/5/1
f 54/7/1 50/7/1 49/7/1
f 54/5/1 49/5/1 53/5/1
f 55/6/1 40/6/1 50/6/1
f 55/7/1 50/7/1 54/7/1
f 56/6/1 40/6/1 55/6/1
f 57/5/1 53/5/1 52/5/1
f 57/5/1 52/5/1 51/5/1
f 58/5/1 53/5/1 57/5/1
f 59/5/1 53/5/1 58/5/1
f 60/6/1 54/6/1 53/6/1
f 60/5/1 53/5/1 59/5/1
f 61/7/1 56/7/1 55/7/1
f 61/7/1 55/7/1 54/7/1
f 62/7/1 56/7/1 61/7/1
f 63/6/1 58/6/1 57/6/1
f 64/5/1 59/5/1 58/5/1
f 64/6/1 58/6/1 63/6/1
f 65/9/1 60/9/1 59/9/1
f 65/5/1 59/5/1 64/5/1
f 66/6/1 54/6/1 60/6/1
f 66/9/1 60/9/1 65/9/1
f 67/7/1 61/7/1 54/7/1
f 67/6/1 54/6/1 66/6/1
f 68/5/1 62/5/1 61/5/1
f 68/7/1 61/7/1 67/7/1
f 69/5/1 62/5/1 68/5/1
f 72/2/1 71/2/1 70/2/1
f 73/2/1 71/2/1 72/2/1
f 80/6/1 75/6/1 74/6/1
f 80/5/1 79/5/1 78/5/1
f 80/5/1 78/5/1 77/5/1
f 80/5/1 77/5/1 76/5/1
f 80/5/1 76/5/1 75/5/1
f 81/5/1 79/5/1 80/5/1
f 82/5/1 79/5/1 81/5/1
f 83/5/1 79/5/1 82/5/1
f 84/5/1 79/5/1 83/5/1
f 85/6/1 80/6/1 74/6/1
f 86/7/1 81/7/1 80/7/1
f 86/6/1 80/6/1 85/6/1
f 87/9/1 82/9/1 81/9/1
f 87/7/1 81/7/1 86/7/1
f 88/5/1 83/5/1 82/5/1
f 88/9/1 82/9/1 87/9/1
f 89/7/1 84/7/1 83/7/1
f 90/7/1 86/7/1 85/7/1
f 90/7/1 87/7/1 86/7/1
f 91/5/1 88/5/1 87/5/1
f 91/7/1 87/7/1 90/7/1
f 92/5/1 83/5/1 88/5/1
f 92/5/1 88/5/1 91/5/1
f 93/7/1 89/7/1 83/7/1
f 93/5/1 83/5/1 92/5/1
f 94/7/1 89/7/1 93/7/1
f 95/5/1 91/5/1 90/5/1
f 96/9/1 92/9/1 91/9/1
f 96/5/1 91/5/1 95/5/1
f 97/6/1 93/6/1 92/6/1
f 97/9/1 92/9/1 96/9/1
f 97/6/1 94/6/1 93/6/1
f 98/6/1 96/6/1 95/6/1
f 98/6/1 97/6/1 96/6/1
f 99/6/1 94/6/1 97/6/1
f 99/6/1 97/6/1 98/6/1
f 105/8/1 101/8/1 100/8/1
f 106/9/1 102/9/1 101/9/1
f 106/8/1 101/8/1 105/8/1
f 107/8/1 103/8/1 102/8/1
f 107/9/1 102/9/1 106/9/1
f 108/9/1 104/9/1 103/9/1
f 108/8/1 103/8/1 107/8/1
f 109/9/1 104/9/1 108/9/1
f 112/6/1 111/6/1 110/6/1
f 113/6/1 111/6/1 112/6/1
f 114/6/1 112/6/1 110/6/1
f 115/6/1 112/6/1 114/6/1
f 116/6/1 111/6/1 113/6/1
f 117/6/1 111/6/1 116/6/1
f 118/4/1 115/4/1 114/4/1
f 119/6/1 116/6/1 115/6/1
f 119/4/1 115/4/1 118/4/1
f 120/4/1 117/4/1 116/4/1
f 120/6/1 116/6/1 119/6/1
f 121/4/1 117/4/1 120/4/1
f 126/8/1 123/8/1 122/8/1
f 126/8/1 124/8/1 123/8/1
f 127/9/1 125/9/1 124/9/1
f 127/8/1 124/8/1 126/8/1
f 128/9/1 125/9/1 127/9/1
f 129/8/1 126/8/1 122/8/1
f 129/9/1 127/9/1 126/9/1
f 130/8/1 128/8/1 127/8/1
f 130/9/1 127/9/1 129/9/1
f 131/8/1 129/8/1 122/8/1
f 131/8/1 130/8/1 129/8/1
f 132/8/1 128/8/1 130/8/1
f 132/8/1 130/8/1 131/8/1
f 133/3/2 134/3/2 137/3/2
f 137/3/2 134/3/2 138/3/2
f 135/3/2 136/3/2 139/3/2
f 139/3/2 136/3/2 140/3/2
f 141/3/2 142/3/2 145/3/2
f 145/3/2 142/3/2 146/3/2
f 143/3/2 144/3/2 147/3/2
f 147/3/2 144/3/2 148/3/2
f 149/3/2 150/3/2 153/3/2
f 153/3/2 150/3/2 154/3/2
f 151/3/2 152/3/2 155/3/2
f 155/3/2 152/3/2 156/3/2
f 157/6/2 158/6/2 159/6/2
f 159/6/2 158/6/2 160/6/2
f 161/8/2 162/8/2 163/8/2
f 163/8/2 162/8/2 164/8/2
f 161/8/2 163/8/2 165/8/2
f 163/9/2 164/9/2 166/9/2
f 165/8/2 163/8/2 166/8/2
f 166/9/2 164/9/2 167/9/2
f 168/7/2 169/7/2 173/7/2
f 171/6/2 172/6/2 174/6/2
f 173/7/2 169/7/2 174/7/2
f 169/6/2 170/6/2 174/6/2
f 170/6/2 171/6/2 174/6/2
f 174/6/2 172/6/2 175/6/2
f 175/6/2 172/6/2 176/6/2
f 175/7/2 176/7/2 177/7/2
f 176/6/2 172/6/2 177/6/2
f 177/6/2 172/6/2 178/6/2
f 173/6/2 174/6/2 179/6/2
f 174/6/2 175/6/2 179/6/2
f 179/6/2 175/6/2 180/6/2
f 177/7/2 178/7/2 181/7/2
f 180/6/2 175/6/2 181/6/2
f 175/7/2 177/7/2 181/7/2
f 181/7/2 178/7/2 182/7/2
f 179/7/2 180/7/2 183/7/2
f 180/6/2 181/6/2 184/6/2
f 183/7/2 180/7/2 184/7/2
f 181/6/2 182/6/2 184/6/2
f 184/6/2 182/6/2 185/6/2
f 186/8/2 187/8/2 189/8/2
f 187/9/2 188/9/2 190/9/2
f 189/8/2 187/8/2 190/8/2
f 190/9/2 188/9/2 191/9/2
f 192/6/2 193/6/2 196/6/2
f 193/7/2 194/7/2 196/7/2
f 194/6/2 195/6/2 197/6/2
f 196/7/2 194/7/2 197/7/2
f 197/6/2 195/6/2 198/6/2
f 192/6/2 196/6/2 199/6/2
f 196/5/2 197/5/2 199/5/2
f 197/5/2 198/5/2 199/5/2
f 199/5/2 198/5/2 200/5/2
f 200/5/2 198/5/2 201/5/2
f 198/6/2 195/6/2 202/6/2
f 201/5/2 198/5/2 202/5/2
f 202/6/2 195/6/2 203/6/2
f 192/6/2 199/6/2 204/6/2
f 199/6/2 200/6/2 204/6/2
f 200/7/2 201/7/2 205/7/2
f 204/6/2 200/6/2 205/6/2
f 202/5/2 203/5/2 206/5/2
f 205/7/2 201/7/2 206/7/2
f 201/5/2 202/5/2 206/5/2
f 204/5/2 205/5/2 207/5/2
f 205/5/2 206/5/2 207/5/2
f 207/5/2 206/5/2 208/5/2
f 206/5/2 203/5/2 209/5/2
f 208/5/2 206/5/2 209/5/2
f 209/5/2 203/5/2 210/5/2
f 207/7/2 208/7/2 211/7/2
f 208/6/2 209/6/2 212/6/2
f 211/7/2 208/7/2 212/7/2
f 212/6/2 209/6/2 213/6/2
f 209/7/2 210/7/2 214/7/2
f 213/6/2 209/6/2 214/6/2
f 214/7/2 210/7/2 215/7/2
f 210/5/2 203/5/2 216/5/2
f 215/7/2 210/7/2 216/7/2
f 216/5/2 203/5/2 217/5/2
f 211/5/2 212/5/2 218/5/2
f 212/7/2 213/7/2 219/7/2
f 218/5/2 212/5/2 219/5/2
f 214/6/2 215/6/2 220/6/2
f 219/7/2 213/7/2 220/7/2
f 213/6/2 214/6/2 220/6/2
f 215/7/2 216/7/2 221/7/2
f 220/6/2 215/6/2 221/6/2
f 216/6/2 217/6/2 222/6/2
f 221/7/2 216/7/2 222/7/2
f 222/6/2 217/6/2 223/6/2
f 226/3/3 225/3/3 224/3/3
f 227/3/3 225/3/3 226/3/3
f 231/3/3 229/3/3 228/3/3
f 232/3/3 229/3/3 231/3/3
f 239/7/3 234/7/3 233/7/3
f 240/5/3 235/5/3 234/5/3
f 240/7/3 234/7/3 239/7/3
f 241/6/3 236/6/3 235/6/3
f 241/5/3 237/5/3 236/5/3
f 242/6/3 238/6/3 237/6/3
f 242/5/3 237/5/3 241/5/3
f 243/6/3 241/6/3 235/6/3
f 243/6/3 242/6/3 241/6/3
f 244/6/3 238/6/3 242/6/3
f 244/6/3 242/6/3 243/6/3
f 245/6/3 240/6/3 239/6/3
f 246/5/3 235/5/3 240/5/3
f 246/6/3 240/6/3 245/6/3
f 247/6/3 243/6/3 235/6/3
f 247/5/3 235/5/3 246/5/3
f 248/7/3 244/7/3 243/7/3
f 248/6/3 243/6/3 247/6/3
f 249/6/3 238/6/3 244/6/3
f 249/7/3 244/7/3 248/7/3
f 250/5/3 246/5/3 245/5/3
f 250/5/3 247/5/3 246/5/3
f 251/7/3 248/7/3 247/7/3
f 251/5/3 247/5/3 250/5/3
f 252/5/3 249/5/3 248/5/3
f 252/7/3 248/7/3 251/7/3
f 253/6/3 238/6/3 249/6/3
f 253/5/3 249/5/3 252/5/3
f 254/6/3 238/6/3 253/6/3
f 255/3/3 231/3/3 230/3/3
f 256/3/3 231/3/3 255/3/3
f 257/5/3 250/5/3 245/5/3
f 258/7/3 251/7/3 250/7/3
f 258/5/3 250/5/3 257/5/3
f 259/6/3 252/6/3 251/6/3
f 259/7/3 251/7/3 258/7/3
f 260/5/3 254/5/3 253/5/3
f 260/6/3 252/6/3 259/6/3
f 260/5/3 253/5/3 252/5/3
f 261/5/3 254/5/3 260/5/3
f 262/7/3 259/7/3 258/7/3
f 262/6/3 258/6/3 257/6/3
f 262/7/3 261/7/3 260/7/3
f 262/7/3 260/7/3 259/7/3
f 263/7/3 261/7/3 262/7/3
f 264/7/3 261/7/3 263/7/3
f 265/6/3 262/6/3 257/6/3
f 265/6/3 263/6/3 262/6/3
f 266/5/3 264/5/3 263/5/3
f 266/6/3 263/6/3 265/6/3
f 267/7/3 261/7/3 264/7/3
f 267/5/3 264/5/3 266/5/3
f 268/5/3 254/5/3 261/5/3
f 268/7/3 261/7/3 267/7/3
f 269/5/3 254/5/3 268/5/3
f 277/6/3 271/6/3 270/6/3
f 278/6/3 271/6/3 277/6/3
f 279/5/3 273/5/3 272/5/3
f 279/6/3 274/6/3 273/6/3
f 280/6/3 274/6/3 279/6/3
f 281/5/3 278/5/3 277/5/3
f 282/5/3 278/5/3 281/5/3
f 283/5/3 279/5/3 272/5/3
f 283/5/3 280/5/3 279/5/3
f 284/5/3 280/5/3 283/5/3
f 285/8/3 276/8/3 275/8/3
f 286/8/3 276/8/3 285/8/3
f 287/5/3 282/5/3 281/5/3
f 288/5/3 282/5/3 287/5/3
f 289/7/3 283/7/3 282/7/3
f 289/5/3 282/5/3 288/5/3
f 290/6/3 284/6/3 283/6/3
f 290/7/3 283/7/3 289/7/3
f 291/5/3 280/5/3 284/5/3
f 291/6/3 284/6/3 290/6/3
f 292/5/3 280/5/3 291/5/3
f 293/9/3 286/9/3 285/9/3
f 294/9/3 286/9/3 293/9/3
f 295/7/3 288/7/3 287/7/3
f 296/6/3 290/6/3 289/6/3
f 296/7/3 288/7/3 295/7/3
f 296/6/3 289/6/3 288/6/3
f 297/7/3 292/7/3 291/7/3
f 297/6/3 290/6/3 296/6/3
f 297/7/3 291/7/3 290/7/3
f 298/7/3 292/7/3 297/7/3
f 299/8/3 294/8/3 293/8/3
f 300/8/3 294/8/3 299/8/3
f 306/6/3 302/6/3 301/6/3
f 307/6/3 302/6/3 306/6/3
f 308/4/3 303/4/3 302/4/3
f 308/6/3 302/6/3 307/6/3
f 309/4/3 303/4/3 308/4/3
f 310/8/3 305/8/3 304/8/3
f 311/8/3 305/8/3 310/8/3
f 312/6/3 307/6/3 306/6/3
f 312/7/3 308/7/3 307/7/3
f 313/6/3 309/6/3 308/6/3
f 313/7/3 308/7/3 312/7/3
f 314/6/3 309/6/3 313/6/3
f 315/9/3 311/9/3 310/9/3
f 316/8/3 305/8/3 311/8/3
f 316/9/3 311/9/3 315/9/3
f 317/6/3 312/6/3 306/6/3
f 317/6/3 314/6/3 313/6/3
f 317/6/3 313/6/3 312/6/3
f 318/6/3 314/6/3 317/6/3
f 319/8/3 316/8/3 315/8/3
f 320/8/3 305/8/3 316/8/3
f 320/8/3 316/8/3 319/8/3
f 323/2/3 322/2/3 321/2/3
f 324/2/3 322/2/3 323/2/3
f 325/1/3 324/1/3 323/1/3
f 326/1/3 324/1/3 325/1/3
f 330/3/3 328/3/3 327/3/3
f 331/3/3 328/3/3 330/3/3
f 332/3/3 330/3/3 329/3/3
f 333/3/3 330/3/3 332/3/3
f 336/3/3 335/3/3 334/3/3
f 337/3/3 335/3/3 336/3/3
f 338/3/4 339/3/4 340/3/4
f 340/3/4 339/3/4 341/3/4
f 342/3/4 343/3/4 345/3/4
f 345/3/4 343/3/4 346/3/4
f 344/3/4 345/3/4 347/3/4
f 347/3/4 345/3/4 348/3/4
f 349/2/4 350/2/4 351/2/4
f 351/2/4 350/2/4 352/2/4
f 351/1/4 352/1/4 353/1/4
f 353/1/4 352/1/4 354/1/4
f 355/6/4 356/6/4 361/6/4
f 361/6/4 356/6/4 362/6/4
f 356/4/4 357/4/4 363/4/4
f 362/6/4 356/6/4 363/6/4
f 363/4/4 357/4/4 364/4/4
f 358/9/4 359/9/4 365/9/4
f 359/8/4 360/8/4 366/8/4
f 365/9/4 359/9/4 366/9/4
f 361/6/4 362/6/4 367/6/4
f 362/7/4 363/7/4 368/7/4
f 367/6/4 362/6/4 368/6/4
f 363/6/4 364/6/4 369/6/4
f 368/7/4 363/7/4 369/7/4
f 366/8/4 360/8/4 370/8/4
f 365/8/4 366/8/4 370/8/4
f 370/8/4 360/8/4 371/8/4
f 367/6/4 368/6/4 372/6/4
f 368/6/4 369/6/4 372/6/4
f 369/6/4 364/6/4 373/6/4
f 372/6/4 369/6/4 373/6/4
f 365/8/4 370/8/4 374/8/4
f 370/9/4 371/9/4 375/9/4
f 374/8/4 370/8/4 375/8/4
f 375/9/4 371/9/4 376/9/4
f 377/5/4 378/5/4 384/5/4
f 378/7/4 379/7/4 385/7/4
f 384/5/4 378/5/4 385/5/4
f 385/7/4 379/7/4 386/7/4
f 380/6/4 381/6/4 387/6/4
f 387/6/4 381/6/4 388/6/4
f 382/9/4 383/9/4 389/9/4
f 389/9/4 383/9/4 390/9/4
f 385/6/4 386/6/4 391/6/4
f 384/6/4 385/6/4 391/6/4
f 391/6/4 386/6/4 392/6/4
f 387/5/4 388/5/4 393/5/4
f 393/5/4 388/5/4 394/5/4
f 391/5/4 392/5/4 395/5/4
f 392/6/4 386/6/4 396/6/4
f 395/5/4 392/5/4 396/5/4
f 396/6/4 386/6/4 397/6/4
f 387/5/4 393/5/4 398/5/4
f 393/7/4 394/7/4 399/7/4
f 398/5/4 393/5/4 399/5/4
f 399/7/4 394/7/4 400/7/4
f 396/5/4 397/5/4 401/5/4
f 397/5/4 398/5/4 401/5/4
f 395/5/4 396/5/4 401/5/4
f 401/5/4 398/5/4 402/5/4
f 399/6/4 400/6/4 403/6/4
f 402/5/4 398/5/4 403/5/4
f 398/6/4 399/6/4 403/6/4
f 389/8/4 390/8/4 404/8/4
f 404/8/4 390/8/4 405/8/4
f 401/6/4 402/6/4 406/6/4
f 402/7/4 403/7/4 407/7/4
f 406/6/4 402/6/4 407/6/4
f 403/6/4 400/6/4 408/6/4
f 407/7/4 403/7/4 408/7/4
f 408/6/4 400/6/4 409/6/4
f 404/9/4 405/9/4 410/9/4
f 410/9/4 405/9/4 411/9/4
f 412/3/4 413/3/4 415/3/4
f 415/3/4 413/3/4 416/3/4
f 417/5/4 418/5/4 422/5/4
f 422/5/4 418/5/4 423/5/4
f 418/6/4 419/6/4 424/6/4
f 423/5/4 418/5/4 424/5/4
f 419/7/4 420/7/4 425/7/4
f 424/6/4 419/6/4 425/6/4
f 420/5/4 421/5/4 426/5/4
f 425/7/4 420/7/4 426/7/4
f 424/7/4 425/7/4 427/7/4
f 423/5/4 424/5/4 427/5/4
f 427/7/4 425/7/4 428/7/4
f 428/7/4 425/7/4 429/7/4
f 425/5/4 426/5/4 430/5/4
f 429/7/4 425/7/4 430/7/4
f 426/5/4 421/5/4 431/5/4
f 430/5/4 426/5/4 431/5/4
f 431/5/4 421/5/4 432/5/4
f 422/6/4 423/6/4 433/6/4
f 423/5/4 427/5/4 434/5/4
f 433/6/4 423/6/4 434/6/4
f 427/5/4 428/5/4 434/5/4
f 428/7/4 429/7/4 435/7/4
f 434/5/4 428/5/4 435/5/4
f 429/5/4 430/5/4 436/5/4
f 435/7/4 429/7/4 436/7/4
f 430/5/4 431/5/4 436/5/4
f 431/6/4 432/6/4 437/6/4
f 436/5/4 431/5/4 437/5/4
f 437/6/4 432/6/4 438/6/4
f 434/5/4 435/5/4 439/5/4
f 433/5/4 434/5/4 439/5/4
f 437/5/4 438/5/4 439/5/4
f 436/5/4 437/5/4 439/5/4
f 435/5/4 436/5/4 439/5/4
f 439/5/4 438/5/4 440/5/4
f 440/5/4 438/5/4 441/5/4
f 414/3/4 415/3/4 442/3/4
f 442/3/4 415/3/4 443/3/4
f 433/5/4 439/5/4 444/5/4
f 444/5/4 439/5/4 445/5/4
f 439/7/4 440/7/4 446/7/4
f 445/5/4 439/5/4 446/5/4
f 444/7/4 445/7/4 447/7/4
f 445/6/4 446/6/4 448/6/4
f 447/7/4 445/7/4 448/7/4
f 448/6/4 446/6/4 449/6/4
f 446/7/4 440/7/4 450/7/4
f 449/6/4 446/6/4 450/6/4
f 440/6/4 441/6/4 451/6/4
f 450/7/4 440/7/4 451/7/4
f 448/6/4 449/6/4 452/6/4
f 447/6/4 448/6/4 452/6/4
f 449/5/4 450/5/4 453/5/4
f 452/6/4 449/6/4 453/6/4
f 450/5/4 451/5/4 453/5/4
f 451/6/4 441/6/4 454/6/4
f 453/5/4 451/5/4 454/5/4
f 454/6/4 441/6/4 455/6/4
f 456/3/4 457/3/4 458/3/4
f 458/3/4 457/3/4 459/3/4
f 465/6/5 462/6/5 461/6/5
f 465/5/5 463/5/5 462/5/5
f 466/6/5 464/6/5 463/6/5
f 466/5/5 463/5/5 465/5/5
f 467/7/5 461/7/5 460/7/5
f 468/6/5 465/6/5 461/6/5
f 468/7/5 461/7/5 467/7/5
f 468/6/5 466/6/5 465/6/5
f 469/6/5 464/6/5 466/6/5
f 469/6/5 466/6/5 468/6/5
f 470/6/5 464/6/5 469/6/5
f 471/6/5 468/6/5 467/6/5
f 471/6/5 469/6/5 468/6/5
f 471/7/5 470/7/5 469/7/5
f 472/7/5 470/7/5 471/7/5
f 473/6/5 471/6/5 467/6/5
f 473/6/5 472/6/5 471/6/5
f 474/6/5 472/6/5 473/6/5
f 475/6/5 472/6/5 474/6/5
f 476/6/5 472/6/5 475/6/5
f 477/6/5 472/6/5 476/6/5
f 478/5/5 474/5/5 473/5/5
f 479/6/5 475/6/5 474/6/5
f 479/5/5 474/5/5 478/5/5
f 480/5/5 476/5/5 475/5/5
f 480/6/5 475/6/5 479/6/5
f 481/7/5 477/7/5 476/7/5
f 481/5/5 476/5/5 480/5/5
f 482/6/5 472/6/5 477/6/5
f 482/7/5 477/7/5 481/7/5
f 483/6/5 472/6/5 482/6/5
f 486/3/5 485/3/5 484/3/5
f 487/3/5 485/3/5 486/3/5
f 490/3/5 489/3/5 488/3/5
f 491/3/5 489/3/5 490/3/5
f 494/3/5 493/3/5 492/3/5
f 495/3/5 493/3/5 494/3/5
f 496/3/5 493/3/5 495/3/5
f 497/3/5 493/3/5 496/3/5
f 502/3/5 499/3/5 498/3/5
f 502/3/5 501/3/5 500/3/5
f 502/3/5 500/3/5 499/3/5
f 503/3/5 501/3/5 502/3/5
f 506/3/5 505/3/5 504/3/5
f 507/3/5 505/3/5 506/3/5
f 510/3/5 509/3/5 508/3/5
f 511/3/5 509/3/5 510/3/5
f 515/2/5 513/2/5 512/2/5
f 516/1/5 514/1/5 513/1/5
f 516/2/5 513/2/5 515/2/5
f 517/1/5 514/1/5 516/1/5
f 522/8/5 519/8/5 518/8/5
f 523/8/5 519/8/5 522/8/5
f 524/8/5 519/8/5 523/8/5
f 525/9/5 520/9/5 519/9/5
f 525/8/5 519/8/5 524/8/5
f 526/8/5 521/8/5 520/8/5
f 526/9/5 520/9/5 525/9/5
f 527/9/5 523/9/5 522/9/5
f 528/9/5 523/9/5 527/9/5
f 529/8/5 528/8/5 527/8/5
f 530/8/5 529/8/5 527/8/5
f 531/8/5 529/8/5 530/8/5
f 533/8/5 521/8/5 526/8/5
f 534/8/5 521/8/5 533/8/5
f 535/9/5 531/9/5 530/9/5
f 536/8/5 532/8/5 531/8/5
f 536/9/5 531/9/5 535/9/5
f 536/8/5 533/8/5 532/8/5
f 537/9/5 534/9/5 533/9/5
f 537/8/5 533/8/5 536/8/5
f 538/9/5 534/9/5 537/9/5
f 539/6/6 540/6/6 542/6/6
f 542/6/6 540/6/6 543/6/6
f 540/5/6 541/5/6 544/5/6
f 543/6/6 540/6/6 544/6/6
f 544/5/6 541/5/6 545/5/6
f 545/5/6 541/5/6 546/5/6
f 546/5/6 541/5/6 547/5/6
f 539/6/6 542/6/6 548/6/6
f 548/6/6 542/6/6 549/6/6
f 546/7/6 547/7/6 550/7/6
f 548/5/6 549/5/6 551/5/6
f 551/5/6 549/5/6 552/5/6
f 550/7/6 547/7/6 553/7/6
f 553/7/6 547/7/6 554/7/6
f 551/9/6 552/9/6 555/9/6
f 555/9/6 552/9/6 556/9/6
f 555/6/6 556/6/6 557/6/6
f 557/6/6 556/6/6 558/6/6
f 553/6/6 554/6/6 559/6/6
f 559/6/6 554/6/6 560/6/6
f 557/7/6 558/7/6 561/7/6
f 561/7/6 558/7/6 562/7/6
f 559/7/6 560/7/6 567/7/6
f 567/7/6 560/7/6 568/7/6
f 561/5/6 562/5/6 569/5/6
f 562/5/6 563/5/6 569/5/6
f 563/6/6 564/6/6 570/6/6
f 569/5/6 563/5/6 570/5/6
f 564/5/6 565/5/6 571/5/6
f 570/6/6 564/6/6 571/6/6
f 565/6/6 566/6/6 572/6/6
f 571/5/6 565/5/6 572/5/6
f 567/6/6 568/6/6 572/6/6
f 566/6/6 567/6/6 572/6/6
f 572/6/6 568/6/6 573/6/6
f 574/3/6 575/3/6 576/3/6
f 576/3/6 575/3/6 577/3/6
f 578/3/6 579/3/6 580/3/6
f 580/3/6 579/3/6 581/3/6
f 582/3/6 583/3/6 584/3/6
f 584/3/6 583/3/6 585/3/6
f 585/3/6 583/3/6 586/3/6
f 587/3/6 588/3/6 591/3/6
f 589/3/6 590/3/6 591/3/6
f 588/3/6 589/3/6 591/3/6
f 591/3/6 590/3/6 592/3/6
f 593/3/6 594/3/6 595/3/6
f 595/3/6 594/3/6 596/3/6
f 597/3/6 598/3/6 599/3/6
f 599/3/6 598/3/6 600/3/6
f 601/6/6 602/6/6 605/6/6
f 602/5/6 603/5/6 606/5/6
f 605/6/6 602/6/6 606/6/6
f 603/7/6 604/7/6 607/7/6
f 606/5/6 603/5/6 607/5/6
f 607/7/6 604/7/6 608/7/6
f 601/6/6 605/6/6 609/6/6
f 607/6/6 608/6/6 612/6/6
f 601/6/6 609/6/6 613/6/6
f 609/5/6 610/5/6 614/5/6
f 613/6/6 609/6/6 614/6/6
f 610/7/6 611/7/6 615/7/6
f 614/5/6 610/5/6 615/5/6
f 611/6/6 612/6/6 616/6/6
f 615/7/6 611/7/6 616/7/6
f 612/6/6 608/6/6 617/6/6
f 616/6/6 612/6/6 617/6/6
f 618/2/6 619/2/6 621/2/6
f 619/1/6 620/1/6 622/1/6
f 621/2/6 619/2/6 622/2/6
f 622/1/6 620/1/6 623/1/6
f 624/8/6 625/8/6 628/8/6
f 628/8/6 625/8/6 629/8/6
f 629/8/6 625/8/6 630/8/6
f 625/9/6 626/9/6 631/9/6
f 630/8/6 625/8/6 631/8/6
f 626/8/6 627/8/6 632/8/6
f 631/9/6 626/9/6 632/9/6
f 628/9/6 629/9/6 633/9/6
f 633/9/6 629/9/6 634/9/6
f 633/8/6 634/8/6 635/8/6
f 633/8/6 635/8/6 636/8/6
f 636/8/6 635/8/6 637/8/6
f 632/8/6 627/8/6 639/8/6
f 639/8/6 627/8/6 640/8/6
f 636/9/6 637/9/6 641/9/6
f 637/8/6 638/8/6 642/8/6
f 641/9/6 637/9/6 642/9/6
f 638/8/6 639/8/6 642/8/6
f 639/9/6 640/9/6 643/9/6
f 642/8/6 639/8/6 643/8/6
f 643/9/6 640/9/6 644/9/6
f 645/8/6 646/8/6 647/8/6
f 647/8/6 646/8/6 648/8/6
f 645/8/6 647/8/6 649/8/6
f 647/9/6 648/9/6 650/9/6
f 649/8/6 647/8/6 650/8/6
f 650/9/6 648/9/6 651/9/6
