# MagicaVoxel @ ephtracy

# material
mtllib spacegun2.mtl
usemtl palette

# normals
vn -1 0 0
vn 1 0 0
vn 0 0 1
vn 0 0 -1
vn 0 -1 0
vn 0 1 0

# texcoords
vt 0.853516 0.5
vt 0.880859 0.5
vt 0.892578 0.5
vt 0.962891 0.5
vt 0.978516 0.5
vt 0.982422 0.5
vt 0.986328 0.5
vt 0.990234 0.5
vt 0.994141 0.5

# verts
v -8 0 -0
v -8 0 -1
v -8 1 -0
v -8 1 -1
v -8 8 -0
v -8 8 -1
v -8 10 -0
v -8 10 -1
v -7 4 -0
v -7 4 -1
v -7 5 -0
v -7 5 -1
v -7 6 1
v -7 6 -0
v -7 6 -1
v -7 6 -2
v -7 7 1
v -7 7 -0
v -7 7 -1
v -7 7 -2
v -7 8 1
v -7 8 -0
v -7 8 -1
v -7 8 -2
v -6 1 -0
v -6 1 -1
v -6 2 -0
v -6 2 -1
v -6 3 -0
v -6 3 -1
v -6 4 -0
v -6 4 -1
v -6 5 1
v -6 5 -0
v -6 5 -1
v -6 5 -2
v -6 6 1
v -6 6 -0
v -6 6 -1
v -6 6 -2
v -6 7 -0
v -6 7 -1
v -5 2 -0
v -5 2 -1
v -5 3 -0
v -5 3 -1
v -5 4 1
v -5 4 -0
v -5 4 -1
v -5 4 -2
v -5 5 1
v -5 5 -0
v -5 5 -1
v -5 5 -2
v -2 3 -0
v -2 3 -1
v -2 4 -0
v -2 4 -1
v 1 4 -0
v 1 4 -1
v 1 5 -0
v 1 5 -1
v 1 8 -0
v 1 8 -1
v 1 9 -0
v 1 9 -1
v 2 5 1
v 2 5 -0
v 2 5 -1
v 2 5 -2
v 2 6 1
v 2 6 -0
v 2 6 -1
v 2 6 -2
v 2 7 1
v 2 7 -0
v 2 7 -1
v 2 7 -2
v 2 8 1
v 2 8 -0
v 2 8 -1
v 2 8 -2
v 3 3 -0
v 3 3 -1
v 3 4 -0
v 3 4 -1
v 4 7 1
v 4 7 -0
v 4 7 -1
v 4 7 -2
v 4 8 1
v 4 8 -0
v 4 8 -1
v 4 8 -2
v -7 9 -0
v -7 9 -1
v -7 10 -0
v -7 10 -1
v -4 0 -0
v -4 0 -1
v -4 1 -0
v -4 1 -1
v -4 4 1
v -4 4 -0
v -4 4 -1
v -4 4 -2
v -4 5 1
v -4 5 -0
v -4 5 -1
v -4 5 -2
v -3 1 -0
v -3 1 -1
v -3 4 -0
v -3 4 -1
v -2 8 -0
v -2 8 -1
v -2 9 -0
v -2 9 -1
v -1 3 -0
v -1 3 -1
v -1 5 -0
v -1 5 -1
v -1 7 1
v -1 7 -0
v -1 7 -1
v -1 7 -2
v -1 8 1
v -1 8 -0
v -1 8 -1
v -1 8 -2
v 0 5 1
v 0 5 -0
v 0 5 -1
v 0 5 -2
v 0 6 1
v 0 6 -0
v 0 6 -1
v 0 6 -2
v 1 6 -0
v 1 6 -1
v 1 7 -0
v 1 7 -1
v 3 7 1
v 3 7 -0
v 3 7 -1
v 3 7 -2
v 3 8 1
v 3 8 -0
v 3 8 -1
v 3 8 -2
v 3 9 -0
v 3 9 -1
v 4 5 1
v 4 5 -0
v 4 5 -1
v 4 5 -2
v 4 6 1
v 4 6 -0
v 4 6 -1
v 4 6 -2
v 5 3 -0
v 5 3 -1
v 5 5 -0
v 5 5 -1
v 5 6 1
v 5 6 -0
v 5 6 -1
v 5 6 -2
v 5 7 1
v 5 7 -0
v 5 7 -1
v 5 7 -2
v 6 5 -0
v 6 5 -1
v 6 6 -0
v 6 6 -1
v 6 7 1
v 6 7 -0
v 6 7 -1
v 6 7 -2
v 6 8 1
v 6 8 -0
v 6 8 -1
v 6 8 -2
v 7 7 -0
v 7 7 -1
v 7 8 -0
v 7 8 -1
v -7 6 1
v -7 7 1
v -7 8 1
v -6 5 1
v -6 6 1
v -6 7 1
v -5 4 1
v -5 5 1
v -4 4 1
v -4 5 1
v -3 6 1
v -3 7 1
v -1 6 1
v -1 7 1
v -1 8 1
v 0 5 1
v 0 6 1
v 2 5 1
v 2 6 1
v 2 7 1
v 2 8 1
v 3 7 1
v 3 8 1
v 4 5 1
v 4 6 1
v 4 7 1
v 4 8 1
v 5 6 1
v 5 7 1
v 6 7 1
v 6 8 1
v -8 0 -0
v -8 1 -0
v -8 8 -0
v -8 10 -0
v -7 4 -0
v -7 5 -0
v -7 8 -0
v -7 9 -0
v -7 10 -0
v -6 1 -0
v -6 2 -0
v -6 3 -0
v -6 4 -0
v -6 5 -0
v -5 2 -0
v -5 3 -0
v -5 4 -0
v -5 5 -0
v -4 0 -0
v -4 1 -0
v -4 4 -0
v -4 5 -0
v -3 1 -0
v -3 4 -0
v -2 3 -0
v -2 4 -0
v -2 8 -0
v -2 9 -0
v -1 3 -0
v -1 5 -0
v -1 7 -0
v -1 8 -0
v 0 5 -0
v 0 6 -0
v 1 4 -0
v 1 5 -0
v 1 6 -0
v 1 8 -0
v 1 9 -0
v 2 5 -0
v 2 6 -0
v 2 7 -0
v 2 8 -0
v 3 3 -0
v 3 4 -0
v 3 7 -0
v 3 8 -0
v 3 9 -0
v 4 5 -0
v 4 6 -0
v 4 7 -0
v 4 8 -0
v 5 3 -0
v 5 5 -0
v 5 6 -0
v 6 5 -0
v 6 6 -0
v 6 7 -0
v 6 8 -0
v 7 7 -0
v 7 8 -0
v -7 6 -1
v -7 7 -1
v -6 6 -1
v -6 7 -1
v 1 6 -1
v 1 7 -1
v 2 6 -1
v 2 7 -1
v 5 6 -1
v 5 7 -1
v -7 6 -0
v -7 7 -0
v -6 6 -0
v -6 7 -0
v 1 6 -0
v 1 7 -0
v 2 6 -0
v 2 7 -0
v 5 6 -0
v 5 7 -0
v -8 0 -1
v -8 1 -1
v -8 8 -1
v -8 10 -1
v -7 4 -1
v -7 5 -1
v -7 8 -1
v -7 9 -1
v -7 10 -1
v -6 1 -1
v -6 2 -1
v -6 3 -1
v -6 4 -1
v -6 5 -1
v -5 2 -1
v -5 3 -1
v -5 4 -1
v -5 5 -1
v -4 0 -1
v -4 1 -1
v -4 4 -1
v -4 5 -1
v -3 1 -1
v -3 4 -1
v -2 3 -1
v -2 4 -1
v -2 8 -1
v -2 9 -1
v -1 3 -1
v -1 5 -1
v -1 7 -1
v -1 8 -1
v 0 5 -1
v 0 6 -1
v 1 4 -1
v 1 5 -1
v 1 6 -1
v 1 8 -1
v 1 9 -1
v 2 5 -1
v 2 6 -1
v 2 7 -1
v 2 8 -1
v 3 3 -1
v 3 4 -1
v 3 7 -1
v 3 8 -1
v 3 9 -1
v 4 5 -1
v 4 6 -1
v 4 7 -1
v 4 8 -1
v 5 3 -1
v 5 5 -1
v 5 6 -1
v 6 5 -1
v 6 6 -1
v 6 7 -1
v 6 8 -1
v 7 7 -1
v 7 8 -1
v -7 6 -2
v -7 7 -2
v -7 8 -2
v -6 5 -2
v -6 6 -2
v -6 7 -2
v -5 4 -2
v -5 5 -2
v -4 4 -2
v -4 5 -2
v -3 6 -2
v -3 7 -2
v -1 6 -2
v -1 7 -2
v -1 8 -2
v 0 5 -2
v 0 6 -2
v 2 5 -2
v 2 6 -2
v 2 7 -2
v 2 8 -2
v 3 7 -2
v 3 8 -2
v 4 5 -2
v 4 6 -2
v 4 7 -2
v 4 8 -2
v 5 6 -2
v 5 7 -2
v 6 7 -2
v 6 8 -2
v -8 0 -0
v -4 0 -0
v -8 0 -1
v -4 0 -1
v -4 1 -0
v -3 1 -0
v -4 1 -1
v -3 1 -1
v -6 3 -0
v -5 3 -0
v -2 3 -0
v -1 3 -0
v 3 3 -0
v 5 3 -0
v -6 3 -1
v -5 3 -1
v -2 3 -1
v -1 3 -1
v 3 3 -1
v 5 3 -1
v -5 4 1
v -4 4 1
v -7 4 -0
v -6 4 -0
v -5 4 -0
v -4 4 -0
v -3 4 -0
v -2 4 -0
v 1 4 -0
v 3 4 -0
v -7 4 -1
v -6 4 -1
v -5 4 -1
v -4 4 -1
v -3 4 -1
v -2 4 -1
v 1 4 -1
v 3 4 -1
v -5 4 -2
v -4 4 -2
v -6 5 1
v -5 5 1
v -4 5 1
v 0 5 1
v 2 5 1
v 4 5 1
v -6 5 -0
v -5 5 -0
v -4 5 -0
v -1 5 -0
v 0 5 -0
v 1 5 -0
v 2 5 -0
v 4 5 -0
v 5 5 -0
v 6 5 -0
v -6 5 -1
v -5 5 -1
v -4 5 -1
v -1 5 -1
v 0 5 -1
v 1 5 -1
v 2 5 -1
v 4 5 -1
v 5 5 -1
v 6 5 -1
v -6 5 -2
v -5 5 -2
v -4 5 -2
v 0 5 -2
v 2 5 -2
v 4 5 -2
v -7 6 1
v -6 6 1
v 0 6 1
v 2 6 1
v 4 6 1
v 5 6 1
v -7 6 -0
v -6 6 -0
v 0 6 -0
v 1 6 -0
v 2 6 -0
v 4 6 -0
v 5 6 -0
v -7 6 -1
v -6 6 -1
v 0 6 -1
v 1 6 -1
v 2 6 -1
v 4 6 -1
v 5 6 -1
v -7 6 -2
v -6 6 -2
v 0 6 -2
v 2 6 -2
v 4 6 -2
v 5 6 -2
v 5 7 1
v 6 7 1
v -7 7 -0
v -6 7 -0
v 1 7 -0
v 2 7 -0
v 5 7 -0
v 6 7 -0
v 7 7 -0
v -7 7 -1
v -6 7 -1
v 1 7 -1
v 2 7 -1
v 5 7 -1
v 6 7 -1
v 7 7 -1
v 5 7 -2
v 6 7 -2
v -8 8 -0
v -7 8 -0
v -8 8 -1
v -7 8 -1
v -8 1 -0
v -6 1 -0
v -8 1 -1
v -6 1 -1
v -6 2 -0
v -5 2 -0
v -6 2 -1
v -5 2 -1
v -7 5 -0
v -6 5 -0
v -7 5 -1
v -6 5 -1
v 1 6 -0
v 2 6 -0
v 5 6 -0
v 6 6 -0
v 1 6 -1
v 2 6 -1
v 5 6 -1
v 6 6 -1
v -1 7 1
v 2 7 1
v 3 7 1
v 4 7 1
v -1 7 -0
v 2 7 -0
v 3 7 -0
v 4 7 -0
v -1 7 -1
v 2 7 -1
v 3 7 -1
v 4 7 -1
v -1 7 -2
v 2 7 -2
v 3 7 -2
v 4 7 -2
v -7 8 1
v -1 8 1
v 2 8 1
v 3 8 1
v 4 8 1
v 6 8 1
v -7 8 -0
v -2 8 -0
v -1 8 -0
v 1 8 -0
v 2 8 -0
v 3 8 -0
v 4 8 -0
v 6 8 -0
v 7 8 -0
v -7 8 -1
v -2 8 -1
v -1 8 -1
v 1 8 -1
v 2 8 -1
v 3 8 -1
v 4 8 -1
v 6 8 -1
v 7 8 -1
v -7 8 -2
v -1 8 -2
v 2 8 -2
v 3 8 -2
v 4 8 -2
v 6 8 -2
v -7 9 -0
v -2 9 -0
v 1 9 -0
v 3 9 -0
v -7 9 -1
v -2 9 -1
v 1 9 -1
v 3 9 -1
v -8 10 -0
v -7 10 -0
v -8 10 -1
v -7 10 -1

# faces
f 3/7/1 2/7/1 1/7/1
f 4/7/1 2/7/1 3/7/1
f 7/9/1 6/9/1 5/9/1
f 8/9/1 6/9/1 7/9/1
f 11/7/1 10/7/1 9/7/1
f 12/7/1 10/7/1 11/7/1
f 17/5/1 14/5/1 13/5/1
f 18/5/1 14/5/1 17/5/1
f 19/5/1 16/5/1 15/5/1
f 20/5/1 16/5/1 19/5/1
f 21/8/1 18/8/1 17/8/1
f 22/2/1 19/2/1 18/2/1
f 22/8/1 18/8/1 21/8/1
f 23/8/1 20/8/1 19/8/1
f 23/2/1 19/2/1 22/2/1
f 24/8/1 20/8/1 23/8/1
f 27/7/1 26/7/1 25/7/1
f 28/7/1 26/7/1 27/7/1
f 31/7/1 30/7/1 29/7/1
f 32/7/1 30/7/1 31/7/1
f 37/6/1 34/6/1 33/6/1
f 38/2/1 35/2/1 34/2/1
f 38/6/1 34/6/1 37/6/1
f 39/6/1 36/6/1 35/6/1
f 39/2/1 35/2/1 38/2/1
f 40/6/1 36/6/1 39/6/1
f 41/2/1 39/2/1 38/2/1
f 42/2/1 39/2/1 41/2/1
f 45/7/1 44/7/1 43/7/1
f 46/7/1 44/7/1 45/7/1
f 51/5/1 48/5/1 47/5/1
f 52/5/1 48/5/1 51/5/1
f 53/5/1 50/5/1 49/5/1
f 54/5/1 50/5/1 53/5/1
f 57/7/1 56/7/1 55/7/1
f 58/7/1 56/7/1 57/7/1
f 61/6/1 60/6/1 59/6/1
f 62/6/1 60/6/1 61/6/1
f 65/9/1 64/9/1 63/9/1
f 66/9/1 64/9/1 65/9/1
f 71/6/1 68/6/1 67/6/1
f 72/6/1 68/6/1 71/6/1
f 73/6/1 70/6/1 69/6/1
f 74/6/1 70/6/1 73/6/1
f 79/8/1 76/8/1 75/8/1
f 80/8/1 76/8/1 79/8/1
f 81/8/1 78/8/1 77/8/1
f 82/8/1 78/8/1 81/8/1
f 85/6/1 84/6/1 83/6/1
f 86/6/1 84/6/1 85/6/1
f 91/8/1 88/8/1 87/8/1
f 92/8/1 88/8/1 91/8/1
f 93/8/1 90/8/1 89/8/1
f 94/8/1 90/8/1 93/8/1
f 95/9/2 96/9/2 97/9/2
f 97/9/2 96/9/2 98/9/2
f 99/7/2 100/7/2 101/7/2
f 101/7/2 100/7/2 102/7/2
f 103/5/2 104/5/2 107/5/2
f 107/5/2 104/5/2 108/5/2
f 105/5/2 106/5/2 109/5/2
f 109/5/2 106/5/2 110/5/2
f 111/7/2 112/7/2 113/7/2
f 113/7/2 112/7/2 114/7/2
f 115/9/2 116/9/2 117/9/2
f 117/9/2 116/9/2 118/9/2
f 119/7/2 120/7/2 121/7/2
f 121/7/2 120/7/2 122/7/2
f 123/8/2 124/8/2 127/8/2
f 127/8/2 124/8/2 128/8/2
f 125/8/2 126/8/2 129/8/2
f 129/8/2 126/8/2 130/8/2
f 131/6/2 132/6/2 135/6/2
f 135/6/2 132/6/2 136/6/2
f 133/6/2 134/6/2 137/6/2
f 137/6/2 134/6/2 138/6/2
f 139/4/2 140/4/2 141/4/2
f 141/4/2 140/4/2 142/4/2
f 143/8/2 144/8/2 147/8/2
f 147/8/2 144/8/2 148/8/2
f 145/8/2 146/8/2 149/8/2
f 149/8/2 146/8/2 150/8/2
f 148/9/2 149/9/2 151/9/2
f 151/9/2 149/9/2 152/9/2
f 153/6/2 154/6/2 157/6/2
f 157/6/2 154/6/2 158/6/2
f 155/6/2 156/6/2 159/6/2
f 159/6/2 156/6/2 160/6/2
f 161/6/2 162/6/2 163/6/2
f 163/6/2 162/6/2 164/6/2
f 165/7/2 166/7/2 169/7/2
f 169/7/2 166/7/2 170/7/2
f 167/7/2 168/7/2 171/7/2
f 171/7/2 168/7/2 172/7/2
f 173/7/2 174/7/2 175/7/2
f 175/7/2 174/7/2 176/7/2
f 177/8/2 178/8/2 181/8/2
f 181/8/2 178/8/2 182/8/2
f 179/8/2 180/8/2 183/8/2
f 183/8/2 180/8/2 184/8/2
f 185/9/2 186/9/2 187/9/2
f 187/9/2 186/9/2 188/9/2
f 193/5/3 190/5/3 189/5/3
f 194/8/3 191/8/3 190/8/3
f 194/5/3 190/5/3 193/5/3
f 196/6/3 193/6/3 192/6/3
f 196/6/3 194/6/3 193/6/3
f 197/5/3 196/5/3 195/5/3
f 198/6/3 194/6/3 196/6/3
f 198/5/3 196/5/3 197/5/3
f 199/6/3 194/6/3 198/6/3
f 200/8/3 191/8/3 194/8/3
f 200/6/3 194/6/3 199/6/3
f 201/6/3 199/6/3 198/6/3
f 201/5/3 200/5/3 199/5/3
f 202/8/3 191/8/3 200/8/3
f 202/5/3 200/5/3 201/5/3
f 203/8/3 191/8/3 202/8/3
f 204/6/3 201/6/3 198/6/3
f 205/8/3 202/8/3 201/8/3
f 205/6/3 201/6/3 204/6/3
f 207/8/3 202/8/3 205/8/3
f 208/8/3 202/8/3 207/8/3
f 210/7/3 208/7/3 207/7/3
f 210/8/3 209/8/3 208/8/3
f 211/8/3 209/8/3 210/8/3
f 212/6/3 207/6/3 206/6/3
f 213/7/3 210/7/3 207/7/3
f 213/6/3 207/6/3 212/6/3
f 214/7/3 210/7/3 213/7/3
f 216/7/3 214/7/3 213/7/3
f 217/8/3 215/8/3 214/8/3
f 217/7/3 214/7/3 216/7/3
f 218/8/3 215/8/3 217/8/3
f 219/8/3 215/8/3 218/8/3
f 226/9/3 223/9/3 222/9/3
f 227/9/3 223/9/3 226/9/3
f 228/9/3 223/9/3 227/9/3
f 229/7/3 221/7/3 220/7/3
f 232/7/3 225/7/3 224/7/3
f 233/7/3 225/7/3 232/7/3
f 234/7/3 230/7/3 229/7/3
f 235/7/3 232/7/3 231/7/3
f 235/7/3 233/7/3 232/7/3
f 236/7/3 233/7/3 235/7/3
f 237/7/3 233/7/3 236/7/3
f 238/7/3 229/7/3 220/7/3
f 238/7/3 234/7/3 229/7/3
f 238/7/3 236/7/3 235/7/3
f 238/7/3 235/7/3 234/7/3
f 239/7/3 236/7/3 238/7/3
f 240/7/3 236/7/3 239/7/3
f 242/7/3 241/7/3 240/7/3
f 242/7/3 240/7/3 239/7/3
f 243/7/3 241/7/3 242/7/3
f 245/7/3 241/7/3 243/7/3
f 246/9/3 227/9/3 226/9/3
f 247/9/3 227/9/3 246/9/3
f 248/7/3 245/7/3 244/7/3
f 249/7/3 241/7/3 245/7/3
f 249/7/3 245/7/3 248/7/3
f 255/6/3 253/6/3 252/6/3
f 256/6/3 253/6/3 255/6/3
f 257/9/3 251/9/3 250/9/3
f 259/7/3 256/7/3 255/7/3
f 259/6/3 255/6/3 254/6/3
f 260/7/3 256/7/3 259/7/3
f 261/9/3 258/9/3 257/9/3
f 261/9/3 257/9/3 250/9/3
f 262/9/3 258/9/3 261/9/3
f 264/6/3 259/6/3 254/6/3
f 266/9/3 258/9/3 262/9/3
f 267/9/3 258/9/3 266/9/3
f 268/6/3 264/6/3 263/6/3
f 268/6/3 259/6/3 264/6/3
f 270/9/3 266/9/3 265/9/3
f 271/9/3 266/9/3 270/9/3
f 272/6/3 268/6/3 263/6/3
f 273/7/3 269/7/3 268/7/3
f 273/6/3 268/6/3 272/6/3
f 274/7/3 269/7/3 273/7/3
f 275/7/3 274/7/3 273/7/3
f 276/7/3 274/7/3 275/7/3
f 279/9/3 278/9/3 277/9/3
f 280/9/3 278/9/3 279/9/3
f 283/5/3 282/5/3 281/5/3
f 284/5/3 282/5/3 283/5/3
f 287/8/3 286/8/3 285/8/3
f 288/8/3 286/8/3 287/8/3
f 289/7/3 288/7/3 287/7/3
f 290/7/3 288/7/3 289/7/3
f 291/5/4 292/5/4 293/5/4
f 293/5/4 292/5/4 294/5/4
f 295/8/4 296/8/4 297/8/4
f 297/8/4 296/8/4 298/8/4
f 297/7/4 298/7/4 299/7/4
f 299/7/4 298/7/4 300/7/4
f 303/9/4 304/9/4 307/9/4
f 307/9/4 304/9/4 308/9/4
f 308/9/4 304/9/4 309/9/4
f 301/7/4 302/7/4 310/7/4
f 305/7/4 306/7/4 313/7/4
f 313/7/4 306/7/4 314/7/4
f 310/7/4 311/7/4 315/7/4
f 312/7/4 313/7/4 316/7/4
f 313/7/4 314/7/4 316/7/4
f 316/7/4 314/7/4 317/7/4
f 317/7/4 314/7/4 318/7/4
f 301/7/4 310/7/4 319/7/4
f 310/7/4 315/7/4 319/7/4
f 316/7/4 317/7/4 319/7/4
f 315/7/4 316/7/4 319/7/4
f 319/7/4 317/7/4 320/7/4
f 320/7/4 317/7/4 321/7/4
f 321/7/4 322/7/4 323/7/4
f 320/7/4 321/7/4 323/7/4
f 323/7/4 322/7/4 324/7/4
f 324/7/4 322/7/4 326/7/4
f 307/9/4 308/9/4 327/9/4
f 327/9/4 308/9/4 328/9/4
f 325/7/4 326/7/4 329/7/4
f 326/7/4 322/7/4 330/7/4
f 329/7/4 326/7/4 330/7/4
f 333/6/4 334/6/4 336/6/4
f 336/6/4 334/6/4 337/6/4
f 331/9/4 332/9/4 338/9/4
f 336/7/4 337/7/4 340/7/4
f 335/6/4 336/6/4 340/6/4
f 340/7/4 337/7/4 341/7/4
f 338/9/4 339/9/4 342/9/4
f 331/9/4 338/9/4 342/9/4
f 342/9/4 339/9/4 343/9/4
f 335/6/4 340/6/4 345/6/4
f 343/9/4 339/9/4 347/9/4
f 347/9/4 339/9/4 348/9/4
f 344/6/4 345/6/4 349/6/4
f 345/6/4 340/6/4 349/6/4
f 346/9/4 347/9/4 351/9/4
f 351/9/4 347/9/4 352/9/4
f 344/6/4 349/6/4 353/6/4
f 349/7/4 350/7/4 354/7/4
f 353/6/4 349/6/4 354/6/4
f 354/7/4 350/7/4 355/7/4
f 354/7/4 355/7/4 356/7/4
f 356/7/4 355/7/4 357/7/4
f 358/9/4 359/9/4 360/9/4
f 360/9/4 359/9/4 361/9/4
f 362/5/4 363/5/4 366/5/4
f 363/8/4 364/8/4 367/8/4
f 366/5/4 363/5/4 367/5/4
f 365/6/4 366/6/4 369/6/4
f 366/6/4 367/6/4 369/6/4
f 368/5/4 369/5/4 370/5/4
f 369/6/4 367/6/4 371/6/4
f 370/5/4 369/5/4 371/5/4
f 371/6/4 367/6/4 372/6/4
f 367/8/4 364/8/4 373/8/4
f 372/6/4 367/6/4 373/6/4
f 371/6/4 372/6/4 374/6/4
f 372/5/4 373/5/4 374/5/4
f 373/8/4 364/8/4 375/8/4
f 374/5/4 373/5/4 375/5/4
f 375/8/4 364/8/4 376/8/4
f 371/6/4 374/6/4 377/6/4
f 374/8/4 375/8/4 378/8/4
f 377/6/4 374/6/4 378/6/4
f 378/8/4 375/8/4 380/8/4
f 380/8/4 375/8/4 381/8/4
f 380/7/4 381/7/4 383/7/4
f 381/8/4 382/8/4 383/8/4
f 383/8/4 382/8/4 384/8/4
f 379/6/4 380/6/4 385/6/4
f 380/7/4 383/7/4 386/7/4
f 385/6/4 380/6/4 386/6/4
f 386/7/4 383/7/4 387/7/4
f 386/7/4 387/7/4 389/7/4
f 387/8/4 388/8/4 390/8/4
f 389/7/4 387/7/4 390/7/4
f 390/8/4 388/8/4 391/8/4
f 391/8/4 388/8/4 392/8/4
f 395/7/5 394/7/5 393/7/5
f 396/7/5 394/7/5 395/7/5
f 399/7/5 398/7/5 397/7/5
f 400/7/5 398/7/5 399/7/5
f 407/7/5 402/7/5 401/7/5
f 408/7/5 402/7/5 407/7/5
f 409/7/5 404/7/5 403/7/5
f 410/7/5 404/7/5 409/7/5
f 411/6/5 406/6/5 405/6/5
f 412/6/5 406/6/5 411/6/5
f 417/5/5 414/5/5 413/5/5
f 418/5/5 414/5/5 417/5/5
f 423/7/5 416/7/5 415/7/5
f 424/7/5 416/7/5 423/7/5
f 427/7/5 420/7/5 419/7/5
f 428/7/5 420/7/5 427/7/5
f 429/6/5 422/6/5 421/6/5
f 430/6/5 422/6/5 429/6/5
f 431/5/5 426/5/5 425/5/5
f 432/5/5 426/5/5 431/5/5
f 439/6/5 434/6/5 433/6/5
f 440/6/5 434/6/5 439/6/5
f 441/6/5 436/6/5 435/6/5
f 442/6/5 436/6/5 441/6/5
f 443/6/5 436/6/5 442/6/5
f 445/6/5 438/6/5 437/6/5
f 446/6/5 438/6/5 445/6/5
f 452/6/5 444/6/5 443/6/5
f 452/6/5 443/6/5 442/6/5
f 453/6/5 444/6/5 452/6/5
f 454/6/5 444/6/5 453/6/5
f 457/7/5 448/7/5 447/7/5
f 458/7/5 448/7/5 457/7/5
f 459/6/5 450/6/5 449/6/5
f 460/6/5 450/6/5 459/6/5
f 461/6/5 452/6/5 451/6/5
f 461/6/5 453/6/5 452/6/5
f 462/6/5 453/6/5 461/6/5
f 463/6/5 456/6/5 455/6/5
f 464/6/5 456/6/5 463/6/5
f 471/5/5 466/5/5 465/5/5
f 472/5/5 466/5/5 471/5/5
f 473/8/5 468/8/5 467/8/5
f 474/8/5 468/8/5 473/8/5
f 475/8/5 468/8/5 474/8/5
f 476/7/5 470/7/5 469/7/5
f 477/7/5 470/7/5 476/7/5
f 485/5/5 479/5/5 478/5/5
f 486/5/5 479/5/5 485/5/5
f 487/8/5 481/8/5 480/8/5
f 487/8/5 482/8/5 481/8/5
f 488/8/5 482/8/5 487/8/5
f 489/7/5 484/7/5 483/7/5
f 490/7/5 484/7/5 489/7/5
f 497/8/5 492/8/5 491/8/5
f 498/8/5 492/8/5 497/8/5
f 500/2/5 494/2/5 493/2/5
f 501/2/5 494/2/5 500/2/5
f 502/9/5 496/9/5 495/9/5
f 502/9/5 499/9/5 498/9/5
f 502/9/5 497/9/5 496/9/5
f 502/9/5 498/9/5 497/9/5
f 503/9/5 499/9/5 502/9/5
f 504/9/5 499/9/5 503/9/5
f 505/9/5 499/9/5 504/9/5
f 506/9/5 499/9/5 505/9/5
f 507/8/5 505/8/5 504/8/5
f 508/8/5 505/8/5 507/8/5
f 511/9/5 510/9/5 509/9/5
f 512/9/5 510/9/5 511/9/5
f 513/7/6 514/7/6 515/7/6
f 515/7/6 514/7/6 516/7/6
f 517/7/6 518/7/6 519/7/6
f 519/7/6 518/7/6 520/7/6
f 521/7/6 522/7/6 523/7/6
f 523/7/6 522/7/6 524/7/6
f 525/7/6 526/7/6 529/7/6
f 527/7/6 528/7/6 529/7/6
f 526/7/6 527/7/6 529/7/6
f 529/7/6 528/7/6 530/7/6
f 530/7/6 528/7/6 531/7/6
f 531/7/6 528/7/6 532/7/6
f 533/8/6 534/8/6 537/8/6
f 537/8/6 534/8/6 538/8/6
f 535/7/6 536/7/6 539/7/6
f 539/7/6 536/7/6 540/7/6
f 541/8/6 542/8/6 545/8/6
f 545/8/6 542/8/6 546/8/6
f 543/7/6 544/7/6 547/7/6
f 547/7/6 544/7/6 548/7/6
f 549/8/6 550/8/6 555/8/6
f 555/8/6 550/8/6 556/8/6
f 556/8/6 550/8/6 557/8/6
f 551/8/6 552/8/6 559/8/6
f 559/8/6 552/8/6 560/8/6
f 553/8/6 554/8/6 561/8/6
f 561/8/6 554/8/6 562/8/6
f 557/9/6 558/9/6 565/9/6
f 556/9/6 557/9/6 565/9/6
f 565/9/6 558/9/6 566/9/6
f 566/9/6 558/9/6 567/9/6
f 562/9/6 563/9/6 569/9/6
f 560/9/6 561/9/6 569/9/6
f 561/9/6 562/9/6 569/9/6
f 569/9/6 563/9/6 570/9/6
f 570/9/6 563/9/6 571/9/6
f 571/9/6 563/9/6 572/9/6
f 565/8/6 566/8/6 573/8/6
f 564/8/6 565/8/6 573/8/6
f 573/8/6 566/8/6 574/8/6
f 568/8/6 569/8/6 575/8/6
f 575/8/6 569/8/6 576/8/6
f 570/8/6 571/8/6 577/8/6
f 577/8/6 571/8/6 578/8/6
f 579/9/6 580/9/6 583/9/6
f 583/9/6 580/9/6 584/9/6
f 581/9/6 582/9/6 585/9/6
f 585/9/6 582/9/6 586/9/6
f 587/9/6 588/9/6 589/9/6
f 589/9/6 588/9/6 590/9/6
